<svg width="32" height="32" viewBox="0 0 32 32" fill="none" xmlns="http://www.w3.org/2000/svg">
<path d="M30.5505 16.0001C30.5505 23.9883 24.0748 30.4639 16.0866 30.4639C8.09849 30.4639 1.6228 23.9883 1.6228 16.0001C1.6228 8.01194 8.09849 1.53625 16.0866 1.53625C24.0748 1.53625 30.5505 8.01194 30.5505 16.0001Z" fill="white"/>
<path fill-rule="evenodd" clip-rule="evenodd" d="M10.2001 3.71642C8.66797 4.45196 7.29474 5.46571 6.14587 6.69218V11.7988L10.3798 13.1195L15.1918 9.62336V5.33765L10.2001 3.71642ZM4.07549 22.4236C3.24904 20.8814 2.71091 19.1617 2.53315 17.3363L5.60661 13.4023L9.99836 14.7722L11.8094 20.3461L9.12486 23.9511L4.07549 22.4236ZM10.4821 24.9603L13.2513 21.2416H18.9709L21.7405 24.9607L18.5961 29.3876C17.7827 29.5391 16.9439 29.6183 16.0866 29.6183C15.2493 29.6183 14.4297 29.5427 13.6341 29.3981L10.4821 24.9603ZM23.0975 23.9512L20.3787 20.3003L22.1804 14.7553L26.518 13.4023L29.6346 17.3915C29.4507 19.2034 28.9117 20.9103 28.0881 22.4415L23.0975 23.9512ZM25.9787 6.64056C24.8044 5.39983 23.3992 4.37991 21.8318 3.64956C21.8215 3.65351 21.8111 3.65728 21.8005 3.66085L16.8831 5.32926V9.55187L21.7789 13.1088L25.9787 11.7988V6.64056ZM19.4082 30.9483C26.2664 29.4312 31.3961 23.3147 31.3961 16.0001C31.3961 7.54492 24.5418 0.690613 16.0866 0.690613C7.6314 0.690613 0.7771 7.54492 0.7771 16.0001C0.7771 23.3569 5.96614 29.5017 12.8838 30.9741C12.9429 30.9932 13.004 31.0058 13.0658 31.0117C14.0424 31.2071 15.0525 31.3096 16.0866 31.3096C17.1142 31.3096 18.1181 31.2084 19.089 31.0154C19.1985 31.0138 19.307 30.9911 19.4082 30.9483Z" fill="black"/>
</svg>
