<svg width="80" height="80" viewBox="0 0 80 80" fill="none" xmlns="http://www.w3.org/2000/svg">
<path fill-rule="evenodd" clip-rule="evenodd" d="M40 78.3087C61.1573 78.3087 78.3087 61.1573 78.3087 40C78.3087 18.8427 61.1573 1.69133 40 1.69133C18.8427 1.69133 1.69133 18.8427 1.69133 40C1.69133 61.1573 18.8427 78.3087 40 78.3087ZM40 80C62.0914 80 80 62.0914 80 40C80 17.9086 62.0914 0 40 0C17.9086 0 0 17.9086 0 40C0 62.0914 17.9086 80 40 80Z" fill="black"/>
<path fill-rule="evenodd" clip-rule="evenodd" d="M32.0137 17.4041V62.5958C22.7081 59.3067 16.041 50.4319 16.041 40C16.041 29.568 22.7081 20.6932 32.0137 17.4041Z" fill="#F5F5F7"/>
<path fill-rule="evenodd" clip-rule="evenodd" d="M47.9863 62.5958V17.4041C57.292 20.6932 63.959 29.568 63.959 40C63.959 50.4319 57.292 59.3067 47.9863 62.5958Z" fill="#AE1C1B"/>
<path fill-rule="evenodd" clip-rule="evenodd" d="M32.0139 62.5959V17.4042C34.5119 16.5213 37.2 16.0408 40.0004 16.0408C42.8007 16.0408 45.4888 16.5213 47.9868 17.4042V62.5958C45.4888 63.4788 42.8007 63.9592 40.0004 63.9592C37.2 63.9592 34.5119 63.4788 32.0139 62.5959Z" fill="#1630A7"/>
<path fill-rule="evenodd" clip-rule="evenodd" d="M40.0002 16.8866C27.2349 16.8866 16.8866 27.2349 16.8866 40.0001C16.8866 52.7654 27.2349 63.1136 40.0002 63.1136C52.7654 63.1136 63.1137 52.7654 63.1137 40.0001C63.1137 27.2349 52.7654 16.8866 40.0002 16.8866ZM15.1953 40.0001C15.1953 26.3008 26.3008 15.1953 40.0002 15.1953C53.6995 15.1953 64.805 26.3008 64.805 40.0001C64.805 53.6995 53.6995 64.805 40.0002 64.805C26.3008 64.805 15.1953 53.6995 15.1953 40.0001Z" fill="black"/>
<path fill-rule="evenodd" clip-rule="evenodd" d="M67.1935 24.0123C66.9498 24.1506 66.8644 24.4603 67.0028 24.704C68.3502 27.0776 69.3937 29.6461 70.0803 32.3567C70.1491 32.6284 70.4251 32.7928 70.6967 32.724C70.9684 32.6552 71.1328 32.3792 71.064 32.1075C70.3547 29.3075 69.2769 26.6544 67.8853 24.203C67.7469 23.9593 67.4372 23.8739 67.1935 24.0123ZM71.536 39.4926C71.2558 39.4926 71.0286 39.7198 71.0286 40C71.0286 42.4027 70.7556 44.741 70.2392 46.9859C70.1763 47.259 70.3468 47.5313 70.6199 47.5941C70.893 47.6569 71.1653 47.4865 71.2281 47.2134C71.7616 44.8945 72.0434 42.4798 72.0434 40C72.0434 39.7198 71.8163 39.4926 71.536 39.4926Z" fill="black"/>
<path d="M71.0446 33.3822L70.584 35.5455L68.3842 35.776L70.2993 36.8826L69.8387 39.046L71.483 37.5665L73.3982 38.6731L72.4992 36.6521L74.1434 35.1727L71.9436 35.4031L71.0446 33.3822Z" fill="black"/>
<path fill-rule="evenodd" clip-rule="evenodd" d="M12.8067 24.0123C13.0504 24.1506 13.1358 24.4603 12.9974 24.704C11.6499 27.0776 10.6065 29.6461 9.91987 32.3567C9.85106 32.6284 9.57507 32.7928 9.30342 32.724C9.03177 32.6552 8.86733 32.3792 8.93614 32.1075C9.64542 29.3075 10.7233 26.6544 12.1149 24.203C12.2533 23.9593 12.563 23.8739 12.8067 24.0123ZM8.46413 39.4926C8.74436 39.4926 8.97153 39.7198 8.97153 40C8.97153 42.4027 9.24453 44.741 9.761 46.9859C9.82383 47.259 9.65338 47.5313 9.38029 47.5941C9.10719 47.6569 8.83487 47.4865 8.77204 47.2134C8.23852 44.8945 7.95673 42.4798 7.95673 40C7.95673 39.7198 8.1839 39.4926 8.46413 39.4926Z" fill="black"/>
<path d="M8.9555 33.3822L9.41611 35.5455L11.616 35.776L9.70079 36.8826L10.1614 39.046L8.51715 37.5665L6.60197 38.6731L7.50094 36.6521L5.85669 35.1727L8.05654 35.4031L8.9555 33.3822Z" fill="black"/>
<path d="M10.8263 57.3771C10.2498 57.1761 9.76802 56.7412 9.38098 56.0725L8.75197 56.3909L8.0791 55.0529L8.70812 54.7346C8.4016 54.0369 8.33675 53.3942 8.51359 52.8066C8.69043 52.219 9.15245 51.7356 9.89965 51.3565C10.6625 50.9705 11.3342 50.8786 11.9145 51.0808C12.4949 51.2831 12.9747 51.7174 13.354 52.3837L13.9452 52.0845L14.618 53.4225L14.0269 53.7216C14.3281 54.4212 14.3918 55.0645 14.2179 55.6515C14.044 56.2386 13.5834 56.7213 12.836 57.0997C12.0726 57.4857 11.4027 57.5782 10.8263 57.3771ZM9.61759 53.5071C9.45773 53.7627 9.4404 54.0591 9.5656 54.3963L12.5743 52.8739C12.3681 52.5648 12.1151 52.402 11.8153 52.3853C11.5155 52.3687 11.1104 52.4895 10.5999 52.7477C10.1042 52.9983 9.77675 53.2514 9.61759 53.5071ZM10.9156 56.0792C11.2167 56.0984 11.6249 55.9776 12.1404 55.7168C12.6355 55.4663 12.9623 55.2121 13.1208 54.954C13.2792 54.696 13.2959 54.3983 13.1708 54.0609L10.1697 55.5795C10.365 55.893 10.6134 56.0593 10.9147 56.0785L10.9156 56.0792Z" fill="black"/>
<path d="M14.3528 60.9402C13.8799 61.1063 13.4705 61.1856 13.1246 61.1781C12.7787 61.1705 12.4639 61.0848 12.1801 60.921C11.8964 60.7572 11.5968 60.5036 11.2813 60.16L11.9724 59.3863C12.2034 59.6303 12.4145 59.7948 12.6056 59.8798C12.7967 59.9648 13.0175 59.9889 13.2681 59.9522L12.9717 59.5685L15.4375 55.6284L16.3834 56.8538L14.211 59.7689L17.4853 58.2808L18.431 59.506L14.3528 60.9402Z" fill="black"/>
<path d="M21.4704 62.3382L20.5545 63.0749L19.6723 62.2385L16.4188 65.6918L15.3022 64.6332L18.5561 61.1804L17.6123 60.2855L18.4111 59.4378L21.4704 62.3382Z" fill="black"/>
<path d="M23.3664 66.7592C23.4987 67.2285 23.3922 67.7161 23.0469 68.2219C22.6823 68.7556 22.2461 69.0508 21.7383 69.1076C21.2304 69.1643 20.696 69.0003 20.1352 68.6153L18.4823 67.4801L21.8155 62.5975L24.736 64.6038L23.9647 65.4774L22.4309 64.4237L21.9079 65.1893L22.293 65.454C22.8762 65.8549 23.234 66.2899 23.3664 66.7592ZM21.2125 67.7673C21.3882 67.716 21.5575 67.5709 21.7206 67.3319C21.8738 67.1073 21.9419 66.9046 21.9248 66.724C21.9077 66.5435 21.7893 66.3779 21.5696 66.2274L21.3174 66.0542L20.3678 67.4451L20.641 67.6328C20.8464 67.7734 21.0369 67.8182 21.2125 67.7673Z" fill="black"/>
<path d="M29.2169 67.5153C29.3896 68.1727 29.2676 68.9644 28.8507 69.8905C28.4381 70.8062 27.926 71.4197 27.3145 71.731C26.703 72.0424 26.036 72.0346 25.3134 71.7076C24.5912 71.3805 24.1443 70.8869 23.9728 70.2268C23.8013 69.5667 23.9239 68.7737 24.3406 67.8477C24.7505 66.9372 25.2602 66.3257 25.8696 66.0132C26.4789 65.7008 27.145 65.7081 27.8678 66.035C28.5944 66.3643 29.0441 66.8577 29.2169 67.5153ZM26.6186 67.184C26.3675 67.4033 26.093 67.8442 25.7949 68.5065C25.4947 69.1739 25.3453 69.6745 25.347 70.0085C25.3486 70.3424 25.4888 70.5725 25.7673 70.6987C25.9633 70.7875 26.1455 70.8 26.3141 70.7361C26.4827 70.6722 26.6537 70.5194 26.827 70.2776C27.001 70.0356 27.1905 69.687 27.3955 69.2319C27.6936 68.5696 27.8418 68.0715 27.8401 67.7376C27.8383 67.4036 27.6955 67.1724 27.4118 67.0438C27.134 66.9178 26.8696 66.9645 26.6186 67.184Z" fill="black"/>
<path d="M34.6353 68.3613L33.197 74.0999L31.707 73.7242L32.8639 69.1081L32.1146 68.9202L31.47 70.6893C31.2359 71.3442 31.0105 71.8477 30.794 72.1999C30.5774 72.5521 30.3287 72.8054 30.0477 72.96C29.7668 73.1145 29.4102 73.1929 28.9778 73.195L28.8825 72.0736C29.0664 72.0381 29.2168 71.9678 29.3336 71.8625C29.4505 71.7573 29.5646 71.587 29.676 71.3518C29.7875 71.1166 29.9355 70.7472 30.12 70.2435L31.128 67.4775L34.6353 68.3613Z" fill="black"/>
<path d="M38.8725 71.2032C39.2208 71.5483 39.3712 72.0379 39.3236 72.6719C39.2732 73.3398 39.0434 73.829 38.6339 74.1394C38.2245 74.4498 37.6785 74.5792 36.9959 74.5275L34.9976 74.376L35.4422 68.4753L36.9743 68.5915L36.8261 70.5699L37.2915 70.6054C37.997 70.6587 38.524 70.858 38.8725 71.2032ZM37.5057 73.2431C37.6323 73.1047 37.7074 72.88 37.731 72.569C37.7528 72.2804 37.7115 72.0595 37.6072 71.9063C37.5029 71.7532 37.315 71.6664 37.0436 71.6459L36.7474 71.6234L36.6137 73.3972L36.9522 73.423C37.1943 73.4412 37.3786 73.3811 37.505 73.2427L37.5057 73.2431Z" fill="black"/>
<path d="M43.4704 74.4109L43.2405 71.9525L41.9897 72.0701L42.2196 74.5285L40.69 74.6723L40.1398 68.7806L41.6695 68.6368L41.8794 70.8832L43.1302 70.7656L42.9203 68.5192L44.4499 68.3753L45.0006 74.267L43.4704 74.4109Z" fill="black"/>
<path d="M49.5229 73.1764L48.9807 72.0537L47.6866 72.4069L47.7865 73.6503L46.2795 74.0619L46.2373 67.9405L48.0056 67.4575L51.0536 72.7583L49.5229 73.1764ZM47.5979 71.3018L48.4997 71.0557L47.3961 68.7715L47.5979 71.3018Z" fill="black"/>
<path d="M53.3704 65.2388L55.8451 70.6105L54.4503 71.2571L53.578 69.3637L53.2004 69.5386L53.3331 71.7752L51.8466 72.4644L51.8927 69.8447C51.5586 69.8369 51.2702 69.7455 51.0276 69.5703C50.785 69.3952 50.5758 69.117 50.4 68.7357C50.1271 68.1433 50.0968 67.6242 50.3091 67.1786C50.5215 66.7331 50.9796 66.3472 51.6835 66.021L53.3704 65.2388ZM53.1364 68.4058L52.4243 66.8599L52.1702 66.9778C51.7026 67.1945 51.5935 67.5733 51.8429 68.1143C51.9567 68.3616 52.0982 68.5196 52.2673 68.5883C52.4363 68.657 52.6183 68.6461 52.8132 68.5557L53.1364 68.4058Z" fill="black"/>
<path d="M59.0809 61.119L62.7591 65.7451L61.558 66.7061L58.5991 62.9853L57.9952 63.4685L59.0085 65.055C59.3858 65.639 59.6484 66.1238 59.7965 66.5096C59.9446 66.8953 59.9947 67.2474 59.9468 67.5657C59.8991 67.8834 59.7451 68.2153 59.4847 68.5616L58.5378 67.9585C58.6213 67.7901 58.6566 67.6275 58.6439 67.4707C58.6312 67.3138 58.5654 67.1196 58.4465 66.8879C58.3275 66.6563 58.1243 66.3142 57.837 65.8618L56.255 63.3809L59.0809 61.119Z" fill="black"/>
<path d="M66.9254 61.2442L65.9607 62.344L64.4252 60.9881C64.0983 60.6995 63.807 60.4216 63.5513 60.1544C63.2956 59.8871 63.0336 59.5974 62.7654 59.2852L65.282 63.1181L64.0931 64.4732L59.6649 60.5631L60.6241 59.4704L62.198 60.8598C62.5291 61.1524 62.8054 61.4153 63.0268 61.6485C63.2482 61.8817 63.5103 62.1736 63.8132 62.5242L61.3141 58.6842L62.4975 57.3361L66.9254 61.2442Z" fill="black"/>
<path d="M64.8739 53.6009L65.8041 54.3717L64.7932 55.9768L68.7691 58.4957L67.9486 59.7988L62.9608 56.6388L64.8739 53.6009Z" fill="black"/>
<path d="M71.2473 53.8408L70.0432 53.5295L69.4749 54.748L70.4848 55.4753L69.8229 56.8944L65.1415 52.9679L65.9185 51.3021L71.9202 52.3987L71.2473 53.8408ZM68.5771 54.1011L68.9728 53.2526L66.5222 52.6196L68.5771 54.1011Z" fill="black"/>
<path d="M19.6526 17.7446C19.6625 18.3567 19.4209 18.9598 18.9276 19.554L19.4415 20.0372L18.4201 21.1307L17.906 20.6481C17.3585 21.176 16.7791 21.4579 16.1677 21.4939C15.5563 21.5298 14.9451 21.2605 14.334 20.686C13.7106 20.1 13.394 19.4988 13.3842 18.8826C13.3745 18.2663 13.6161 17.6651 14.1093 17.0789L13.6263 16.6248L14.6478 15.5314L15.1309 15.9855C15.6824 15.4616 16.2628 15.1808 16.8722 15.1429C17.4816 15.1051 18.0918 15.3734 18.7028 15.9477C19.3264 16.5338 19.643 17.1328 19.6526 17.7446ZM16.4446 20.2137C16.7393 20.2766 17.0228 20.1911 17.295 19.9572L14.837 17.6457C14.6182 17.9462 14.5524 18.2404 14.6398 18.5285C14.7272 18.8166 14.9794 19.1567 15.3965 19.549C15.801 19.9296 16.1504 20.1511 16.4446 20.2137ZM18.4065 18.1079C18.3212 17.8175 18.0677 17.4745 17.6461 17.0791C17.2414 16.6988 16.891 16.4783 16.5947 16.4176C16.2985 16.357 16.0141 16.4435 15.7415 16.6773L18.1942 18.9823C18.4211 18.6893 18.4918 18.3979 18.4065 18.1079Z" fill="black"/>
<path d="M20.5446 11.0121L21.061 11.9846L19.6415 13.0377L20.4086 14.0782L21.6575 13.1518L22.2884 14.0075L21.0394 14.9339L21.8529 16.0362L23.368 14.9123L24.0191 15.7953L21.2686 17.8353L17.7601 13.0776L20.5446 11.0121Z" fill="black"/>
<path d="M28.1149 12.2741L29.3034 14.5909L28.3978 15.0584L27.6056 13.8489L25.2658 15.0568L25.7865 16.4063L24.8807 16.8739L23.6922 14.5572L24.0016 14.3976C24.0395 14.1739 24.0191 13.8892 23.9404 13.5435C23.8618 13.1978 23.6867 12.6674 23.4152 11.9522L22.574 9.79108L25.5177 8.27231L27.6848 12.4967L28.1149 12.2741ZM24.7196 9.93743L24.2366 10.1868L24.6273 11.1534C24.9088 11.8511 25.0798 12.3917 25.1401 12.7752C25.2005 13.1587 25.1805 13.5135 25.0802 13.8395L26.3783 13.1694L24.7196 9.93743Z" fill="black"/>
<path d="M30.5536 6.48332L30.7391 7.56928L29.0615 8.1213L29.4636 9.35111L30.9395 8.86543L31.2702 9.87652L29.7948 10.3624L30.2208 11.6649L32.0108 11.0749L32.3521 12.1187L29.1016 13.1888L27.2625 7.56573L30.5536 6.48332Z" fill="black"/>
<path d="M35.5283 6.03936C35.9902 6.29893 36.2736 6.745 36.3787 7.37755C36.4875 8.03269 36.3751 8.56485 36.0415 8.97402C35.7078 9.38319 35.2005 9.64489 34.5196 9.75912L34.101 9.82901L34.4147 11.7187L32.8992 11.9718L31.9301 6.13462L33.6969 5.83962C34.4555 5.71333 35.0659 5.7799 35.5283 6.03936ZM34.7599 8.38084C34.8613 8.21434 34.8849 7.966 34.8306 7.63583C34.7822 7.34468 34.6848 7.13773 34.5383 7.01498C34.3919 6.89223 34.1791 6.85438 33.9 6.90145L33.6235 6.94757L33.9221 8.74501L34.1983 8.69889C34.4711 8.65396 34.6583 8.54823 34.7599 8.38173V8.38084Z" fill="black"/>
<path d="M40.2011 11.2451L39.9521 10.0229L38.6111 10.0447L38.4017 11.2744L36.8401 11.2997L38.3061 5.35732L40.1399 5.3277L41.7886 11.2192L40.2011 11.2451ZM38.7972 8.95167L39.7307 8.93642L39.2237 6.44966L38.7972 8.95167Z" fill="black"/>
<path d="M47.2654 6.13445L46.3186 11.9754L44.8022 11.7279L45.5637 7.0306L44.8011 6.90643L44.3088 8.72392C44.1309 9.39656 43.949 9.91754 43.7631 10.2869C43.5772 10.6562 43.3508 10.9298 43.084 11.1078C42.8172 11.2852 42.4686 11.3937 42.038 11.4333L41.8479 10.3239C42.0283 10.2728 42.1722 10.1901 42.2796 10.0756C42.387 9.96112 42.4863 9.78184 42.5774 9.53776C42.6686 9.29368 42.7848 8.91289 42.9259 8.3954L43.6962 5.55369L47.2654 6.13445Z" fill="black"/>
<path d="M51.5707 10.0768C51.8214 10.4992 51.844 11.011 51.6386 11.6123C51.4222 12.2459 51.0769 12.6613 50.6029 12.8584C50.1288 13.0555 49.5679 13.0427 48.9201 12.8201L47.0249 12.1687L48.9371 6.57062L50.3905 7.07013L49.7495 8.94633L50.1916 9.09818C50.8602 9.32807 51.32 9.65428 51.5707 10.0768ZM49.736 11.7054C49.8932 11.6036 50.0223 11.405 50.1235 11.1095C50.217 10.8357 50.2322 10.6114 50.1693 10.4367C50.1063 10.2621 49.9463 10.1306 49.6892 10.0424L49.4082 9.94572L48.8331 11.6291L49.1544 11.7396C49.3846 11.8187 49.5785 11.8073 49.736 11.7054Z" fill="black"/>
<path d="M53.8095 15.0429L54.9872 12.8747L53.8843 12.2716L52.7064 14.4398L51.3573 13.7024L54.1808 8.50625L55.5299 9.24364L54.4535 11.225L55.5566 11.8281L56.6331 9.84693L57.9829 10.5841L55.1589 15.7803L53.8095 15.0429Z" fill="black"/>
<path d="M58.0536 18.0189L58.6338 16.9155L57.5832 16.0793L56.644 16.8969L55.4205 15.9231L60.3109 12.2613L61.747 13.4045L59.2971 19.0087L58.0536 18.0189ZM58.4182 15.3526L59.15 15.9353L60.3302 13.69L58.4182 15.3526Z" fill="black"/>
<path d="M66.7059 18.4526L62.2977 22.3858L61.2765 21.2344L62.8303 19.8478L62.5543 19.5363L60.4586 20.312L59.3698 19.0841L61.8825 18.3689C61.793 18.0461 61.7966 17.7427 61.8934 17.4589C61.9902 17.1751 62.195 16.8936 62.5078 16.6144C62.9938 16.1807 63.4803 16.0012 63.967 16.0757C64.4538 16.1502 64.9549 16.4781 65.4702 17.0594L66.7059 18.4526ZM63.6173 19.146L64.8855 18.0141L64.6993 17.8043C64.3574 17.4183 63.9643 17.4234 63.52 17.8195C63.3172 18.0006 63.2075 18.1821 63.1907 18.3641C63.174 18.5461 63.2372 18.7176 63.3803 18.8785L63.6173 19.146Z" fill="black"/>
</svg>
