<svg width="286" height="80" viewBox="0 0 286 80" fill="none" xmlns="http://www.w3.org/2000/svg">
<path fill-rule="evenodd" clip-rule="evenodd" d="M40 78.3087C61.1573 78.3087 78.3087 61.1573 78.3087 40C78.3087 18.8427 61.1573 1.69133 40 1.69133C18.8427 1.69133 1.69133 18.8427 1.69133 40C1.69133 61.1573 18.8427 78.3087 40 78.3087ZM40 80C62.0914 80 80 62.0914 80 40C80 17.9086 62.0914 0 40 0C17.9086 0 0 17.9086 0 40C0 62.0914 17.9086 80 40 80Z" fill="black"/>
<path fill-rule="evenodd" clip-rule="evenodd" d="M32.0137 17.4041V62.5958C22.7081 59.3067 16.041 50.4319 16.041 40C16.041 29.568 22.7081 20.6933 32.0137 17.4041Z" fill="#F5F5F7"/>
<path fill-rule="evenodd" clip-rule="evenodd" d="M47.9863 62.5958V17.4041C57.292 20.6933 63.959 29.568 63.959 40C63.959 50.4319 57.292 59.3067 47.9863 62.5958Z" fill="#AE1C1B"/>
<path fill-rule="evenodd" clip-rule="evenodd" d="M32.0139 62.5959V17.4042C34.5119 16.5213 37.2 16.0408 40.0004 16.0408C42.8007 16.0408 45.4888 16.5213 47.9868 17.4042V62.5958C45.4888 63.4788 42.8007 63.9592 40.0004 63.9592C37.2 63.9592 34.5119 63.4788 32.0139 62.5959Z" fill="#1630A7"/>
<path fill-rule="evenodd" clip-rule="evenodd" d="M40.0002 16.8866C27.2349 16.8866 16.8866 27.2349 16.8866 40.0001C16.8866 52.7654 27.2349 63.1136 40.0002 63.1136C52.7654 63.1136 63.1137 52.7654 63.1137 40.0001C63.1137 27.2349 52.7654 16.8866 40.0002 16.8866ZM15.1953 40.0001C15.1953 26.3008 26.3008 15.1953 40.0002 15.1953C53.6995 15.1953 64.805 26.3008 64.805 40.0001C64.805 53.6995 53.6995 64.805 40.0002 64.805C26.3008 64.805 15.1953 53.6995 15.1953 40.0001Z" fill="black"/>
<path d="M54.5505 40C54.5505 47.9882 48.0748 54.4639 40.0866 54.4639C32.0985 54.4639 25.6228 47.9882 25.6228 40C25.6228 32.0119 32.0985 25.5362 40.0866 25.5362C48.0748 25.5362 54.5505 32.0119 54.5505 40Z" fill="white"/>
<path fill-rule="evenodd" clip-rule="evenodd" d="M40.0866 26.3819C38.9526 26.3819 37.8509 26.5205 36.7977 26.7817L40.0316 27.8321L43.2308 26.7467C42.2215 26.5081 41.1688 26.3819 40.0866 26.3819ZM30.1459 30.6922C31.2947 29.4657 32.668 28.4519 34.2001 27.7164L39.1918 29.3376V33.6233L34.3798 37.1194L30.1459 35.7988V30.6922ZM28.4545 32.9147C27.4276 34.5969 26.7554 36.5193 26.5418 38.578L28.4545 36.1297V32.9147ZM24.846 41.462C25.4805 48.1596 30.4298 53.6003 36.8838 54.9741C36.9429 54.9932 37.004 55.0058 37.0658 55.0116C38.0424 55.2071 39.0525 55.3096 40.0866 55.3096C41.1142 55.3096 42.1181 55.2084 43.089 55.0153C43.1985 55.0138 43.307 54.9911 43.4082 54.9483C50.2664 53.4312 55.3961 47.3147 55.3961 40.0001C55.3961 31.5449 48.5418 24.6906 40.0866 24.6906C31.6314 24.6906 24.7771 31.5449 24.7771 40.0001C24.7771 40.3076 24.7862 40.6129 24.804 40.9159C24.7571 41.0978 24.7724 41.2904 24.846 41.462ZM26.5332 41.3363L29.6066 37.4023L33.9984 38.7722L35.8094 44.3461L33.1249 47.9511L28.0755 46.4235C27.249 44.8814 26.7109 43.1616 26.5332 41.3363ZM37.2513 45.2416L34.4821 48.9603L37.6341 53.398C38.4297 53.5427 39.2493 53.6183 40.0866 53.6183C40.9439 53.6183 41.7827 53.5391 42.5961 53.3875L45.7405 48.9607L42.9709 45.2416H37.2513ZM44.3787 44.3003L47.0975 47.9512L52.0881 46.4414C52.9117 44.9103 53.4507 43.2034 53.6346 41.3915L50.518 37.4023L46.1804 38.7553L44.3787 44.3003ZM51.6701 32.8356C52.7364 34.556 53.4301 36.5315 53.6387 38.6494L51.6701 36.1297V32.8356ZM45.8318 27.6495C47.3992 28.3799 48.8044 29.3998 49.9787 30.6405V35.7988L45.7789 37.1088L40.8831 33.5518V29.3292L45.8005 27.6608C45.8111 27.6572 45.8215 27.6535 45.8318 27.6495ZM47.326 49.6491L50.5977 48.6594C49.171 50.3892 47.3256 51.7607 45.2166 52.619L47.326 49.6491ZM32.8968 49.6491L35.0262 52.6471C32.8801 51.7875 31.0037 50.3976 29.5591 48.6394L32.8968 49.6491ZM37.3292 43.5503L35.625 38.3053L40.0867 35.0638L44.5483 38.3053L42.8441 43.5503H37.3292Z" fill="black"/>
<path fill-rule="evenodd" clip-rule="evenodd" d="M67.1935 24.0123C66.9498 24.1506 66.8644 24.4603 67.0028 24.704C68.3502 27.0776 69.3937 29.6461 70.0803 32.3567C70.1491 32.6284 70.4251 32.7928 70.6967 32.724C70.9684 32.6552 71.1328 32.3792 71.064 32.1075C70.3547 29.3075 69.2769 26.6544 67.8853 24.203C67.7469 23.9593 67.4372 23.8739 67.1935 24.0123ZM71.536 39.4926C71.2558 39.4926 71.0286 39.7198 71.0286 40C71.0286 42.4027 70.7556 44.741 70.2392 46.9859C70.1763 47.259 70.3468 47.5313 70.6199 47.5941C70.893 47.6569 71.1653 47.4865 71.2281 47.2134C71.7616 44.8945 72.0434 42.4798 72.0434 40C72.0434 39.7198 71.8163 39.4926 71.536 39.4926Z" fill="black"/>
<path d="M71.0446 33.3822L70.584 35.5455L68.3842 35.776L70.2993 36.8826L69.8387 39.046L71.483 37.5665L73.3982 38.6731L72.4992 36.6521L74.1434 35.1727L71.9436 35.4031L71.0446 33.3822Z" fill="black"/>
<path fill-rule="evenodd" clip-rule="evenodd" d="M12.8067 24.0123C13.0504 24.1506 13.1358 24.4603 12.9974 24.704C11.6499 27.0776 10.6065 29.6461 9.91987 32.3567C9.85106 32.6284 9.57507 32.7928 9.30342 32.724C9.03177 32.6552 8.86733 32.3792 8.93614 32.1075C9.64542 29.3075 10.7233 26.6544 12.1149 24.203C12.2533 23.9593 12.563 23.8739 12.8067 24.0123ZM8.46413 39.4926C8.74436 39.4926 8.97153 39.7198 8.97153 40C8.97153 42.4027 9.24453 44.741 9.761 46.9859C9.82383 47.259 9.65338 47.5313 9.38029 47.5941C9.10719 47.6569 8.83487 47.4865 8.77204 47.2134C8.23852 44.8945 7.95673 42.4798 7.95673 40C7.95673 39.7198 8.1839 39.4926 8.46413 39.4926Z" fill="black"/>
<path d="M8.9555 33.3822L9.41611 35.5455L11.616 35.776L9.70079 36.8826L10.1614 39.046L8.51715 37.5665L6.60197 38.6731L7.50094 36.6521L5.85669 35.1727L8.05654 35.4031L8.9555 33.3822Z" fill="black"/>
<path d="M10.8263 57.3772C10.2498 57.1761 9.76802 56.7412 9.38098 56.0725L8.75197 56.3909L8.0791 55.0529L8.70812 54.7347C8.4016 54.0369 8.33675 53.3943 8.51359 52.8067C8.69043 52.219 9.15245 51.7357 9.89965 51.3565C10.6625 50.9705 11.3342 50.8787 11.9145 51.0809C12.4949 51.2831 12.9747 51.7174 13.354 52.3838L13.9452 52.0845L14.618 53.4225L14.0269 53.7216C14.3281 54.4212 14.3918 55.0645 14.2179 55.6516C14.044 56.2386 13.5834 56.7213 12.836 57.0997C12.0726 57.4857 11.4027 57.5782 10.8263 57.3772ZM9.61759 53.5071C9.45773 53.7627 9.4404 54.0591 9.5656 54.3964L12.5743 52.8739C12.3681 52.5649 12.1151 52.402 11.8153 52.3854C11.5155 52.3687 11.1104 52.4895 10.5999 52.7478C10.1042 52.9983 9.77675 53.2515 9.61759 53.5071ZM10.9156 56.0792C11.2167 56.0984 11.6249 55.9776 12.1404 55.7168C12.6355 55.4664 12.9623 55.2121 13.1208 54.9541C13.2792 54.696 13.2959 54.3983 13.1708 54.0609L10.1697 55.5795C10.365 55.893 10.6134 56.0594 10.9147 56.0785L10.9156 56.0792Z" fill="black"/>
<path d="M14.3528 60.9402C13.8799 61.1064 13.4705 61.1857 13.1246 61.1781C12.7787 61.1705 12.4639 61.0848 12.1801 60.9211C11.8964 60.7573 11.5968 60.5036 11.2813 60.1601L11.9724 59.3863C12.2034 59.6303 12.4145 59.7948 12.6056 59.8798C12.7967 59.9648 13.0175 59.989 13.2681 59.9522L12.9717 59.5685L15.4375 55.6284L16.3834 56.8538L14.211 59.7689L17.4853 58.2809L18.431 59.5061L14.3528 60.9402Z" fill="black"/>
<path d="M21.4704 62.3382L20.5545 63.0749L19.6723 62.2385L16.4188 65.6919L15.3022 64.6332L18.5561 61.1804L17.6123 60.2855L18.4111 59.4378L21.4704 62.3382Z" fill="black"/>
<path d="M23.3664 66.7592C23.4987 67.2286 23.3922 67.7161 23.0469 68.2219C22.6823 68.7556 22.2461 69.0508 21.7383 69.1076C21.2304 69.1644 20.696 69.0003 20.1352 68.6154L18.4823 67.4801L21.8155 62.5976L24.736 64.6038L23.9647 65.4774L22.4309 64.4237L21.9079 65.1893L22.293 65.454C22.8762 65.8549 23.234 66.29 23.3664 66.7592ZM21.2125 67.7673C21.3882 67.7161 21.5575 67.571 21.7206 67.332C21.8738 67.1073 21.9419 66.9046 21.9248 66.7241C21.9077 66.5435 21.7893 66.3779 21.5696 66.2274L21.3174 66.0543L20.3678 67.4451L20.641 67.6328C20.8464 67.7734 21.0369 67.8182 21.2125 67.7673Z" fill="black"/>
<path d="M29.2169 67.5154C29.3896 68.1727 29.2676 68.9645 28.8507 69.8905C28.4381 70.8062 27.926 71.4197 27.3145 71.7311C26.703 72.0424 26.036 72.0346 25.3134 71.7077C24.5912 71.3806 24.1443 70.887 23.9728 70.2269C23.8013 69.5667 23.9239 68.7737 24.3406 67.8478C24.7505 66.9372 25.2602 66.3257 25.8696 66.0133C26.4789 65.7008 27.145 65.7081 27.8678 66.0351C28.5944 66.3643 29.0441 66.8577 29.2169 67.5154ZM26.6186 67.184C26.3675 67.4034 26.093 67.8442 25.7949 68.5066C25.4947 69.1739 25.3453 69.6745 25.347 70.0085C25.3486 70.3425 25.4888 70.5725 25.7673 70.6987C25.9633 70.7875 26.1455 70.8 26.3141 70.7361C26.4827 70.6723 26.6537 70.5194 26.827 70.2776C27.001 70.0356 27.1905 69.6871 27.3955 69.2319C27.6936 68.5697 27.8418 68.0716 27.8401 67.7376C27.8383 67.4037 27.6955 67.1724 27.4118 67.0439C27.134 66.9178 26.8696 66.9645 26.6186 67.184Z" fill="black"/>
<path d="M34.6353 68.3613L33.197 74.0999L31.707 73.7242L32.8639 69.1081L32.1146 68.9202L31.47 70.6893C31.2359 71.3442 31.0105 71.8477 30.794 72.1999C30.5774 72.5521 30.3287 72.8055 30.0477 72.96C29.7668 73.1146 29.4102 73.1929 28.9778 73.195L28.8825 72.0736C29.0664 72.0381 29.2168 71.9678 29.3336 71.8625C29.4505 71.7573 29.5646 71.5871 29.676 71.3518C29.7875 71.1166 29.9355 70.7472 30.12 70.2435L31.128 67.4776L34.6353 68.3613Z" fill="black"/>
<path d="M38.8725 71.2032C39.2208 71.5484 39.3712 72.038 39.3236 72.6719C39.2732 73.3399 39.0434 73.829 38.6339 74.1394C38.2245 74.4499 37.6785 74.5792 36.9959 74.5276L34.9976 74.3761L35.4422 68.4754L36.9743 68.5915L36.8261 70.5699L37.2915 70.6054C37.997 70.6587 38.524 70.858 38.8725 71.2032ZM37.5057 73.2431C37.6323 73.1048 37.7074 72.8801 37.731 72.5691C37.7528 72.2804 37.7115 72.0595 37.6072 71.9063C37.5029 71.7532 37.315 71.6664 37.0436 71.6459L36.7474 71.6234L36.6137 73.3973L36.9522 73.423C37.1943 73.4412 37.3786 73.3811 37.505 73.2428L37.5057 73.2431Z" fill="black"/>
<path d="M43.4704 74.4109L43.2405 71.9525L41.9897 72.0701L42.2196 74.5285L40.69 74.6723L40.1398 68.7807L41.6695 68.6368L41.8794 70.8832L43.1302 70.7656L42.9203 68.5192L44.4499 68.3754L45.0006 74.267L43.4704 74.4109Z" fill="black"/>
<path d="M49.5229 73.1764L48.9807 72.0537L47.6866 72.4069L47.7865 73.6504L46.2795 74.0619L46.2373 67.9405L48.0056 67.4575L51.0536 72.7583L49.5229 73.1764ZM47.5979 71.3018L48.4997 71.0558L47.3961 68.7716L47.5979 71.3018Z" fill="black"/>
<path d="M53.3704 65.2388L55.8451 70.6105L54.4503 71.2571L53.578 69.3637L53.2004 69.5386L53.3331 71.7752L51.8466 72.4644L51.8927 69.8448C51.5586 69.837 51.2702 69.7455 51.0276 69.5704C50.785 69.3952 50.5758 69.117 50.4 68.7358C50.1271 68.1433 50.0968 67.6243 50.3091 67.1787C50.5215 66.7331 50.9796 66.3472 51.6835 66.0211L53.3704 65.2388ZM53.1364 68.4058L52.4243 66.8599L52.1702 66.9779C51.7026 67.1945 51.5935 67.5734 51.8429 68.1144C51.9567 68.3617 52.0982 68.5196 52.2673 68.5884C52.4363 68.6571 52.6183 68.6462 52.8132 68.5557L53.1364 68.4058Z" fill="black"/>
<path d="M59.0809 61.1191L62.7591 65.7451L61.558 66.7062L58.5991 62.9853L57.9952 63.4685L59.0085 65.0551C59.3858 65.639 59.6484 66.1239 59.7965 66.5096C59.9446 66.8954 59.9947 67.2474 59.9468 67.5658C59.8991 67.8834 59.7451 68.2153 59.4847 68.5616L58.5378 67.9585C58.6213 67.7901 58.6566 67.6275 58.6439 67.4707C58.6312 67.3139 58.5654 67.1196 58.4465 66.888C58.3275 66.6563 58.1243 66.3143 57.837 65.8618L56.255 63.3809L59.0809 61.1191Z" fill="black"/>
<path d="M66.9254 61.2443L65.9607 62.344L64.4252 60.9881C64.0983 60.6996 63.807 60.4217 63.5513 60.1544C63.2956 59.8871 63.0336 59.5974 62.7654 59.2852L65.282 63.1181L64.0931 64.4732L59.6649 60.5631L60.6241 59.4704L62.198 60.8599C62.5291 61.1524 62.8054 61.4153 63.0268 61.6485C63.2482 61.8817 63.5103 62.1736 63.8132 62.5243L61.3141 58.6842L62.4975 57.3361L66.9254 61.2443Z" fill="black"/>
<path d="M64.8739 53.601L65.8041 54.3717L64.7932 55.9769L68.7691 58.4957L67.9486 59.7988L62.9608 56.6389L64.8739 53.601Z" fill="black"/>
<path d="M71.2473 53.8409L70.0432 53.5296L69.4749 54.748L70.4848 55.4753L69.8229 56.8944L65.1415 52.968L65.9185 51.3021L71.9202 52.3987L71.2473 53.8409ZM68.5771 54.1011L68.9728 53.2527L66.5222 52.6196L68.5771 54.1011Z" fill="black"/>
<path d="M19.6526 17.7447C19.6625 18.3568 19.4209 18.9599 18.9276 19.554L19.4415 20.0372L18.4201 21.1308L17.906 20.6481C17.3585 21.176 16.7791 21.4579 16.1677 21.4939C15.5563 21.5298 14.9451 21.2606 14.334 20.6861C13.7106 20.1 13.394 19.4988 13.3842 18.8826C13.3745 18.2664 13.6161 17.6651 14.1093 17.0789L13.6263 16.6248L14.6478 15.5314L15.1309 15.9855C15.6824 15.4617 16.2628 15.1808 16.8722 15.143C17.4816 15.1051 18.0918 15.3734 18.7028 15.9478C19.3264 16.5338 19.643 17.1328 19.6526 17.7447ZM16.4446 20.2137C16.7393 20.2766 17.0228 20.1911 17.295 19.9572L14.837 17.6457C14.6182 17.9462 14.5524 18.2405 14.6398 18.5285C14.7272 18.8166 14.9794 19.1568 15.3965 19.549C15.801 19.9296 16.1504 20.1511 16.4446 20.2137ZM18.4065 18.108C18.3212 17.8175 18.0677 17.4746 17.6461 17.0791C17.2414 16.6988 16.891 16.4783 16.5947 16.4177C16.2985 16.357 16.0141 16.4436 15.7415 16.6773L18.1942 18.9823C18.4211 18.6894 18.4918 18.3979 18.4065 18.108Z" fill="black"/>
<path d="M20.5446 11.0122L21.061 11.9846L19.6415 13.0377L20.4086 14.0783L21.6575 13.1518L22.2884 14.0075L21.0394 14.934L21.8529 16.0362L23.368 14.9123L24.0191 15.7954L21.2686 17.8353L17.7601 13.0776L20.5446 11.0122Z" fill="black"/>
<path d="M28.1149 12.2741L29.3034 14.591L28.3978 15.0584L27.6056 13.849L25.2658 15.0568L25.7865 16.4063L24.8807 16.8739L23.6922 14.5573L24.0016 14.3976C24.0395 14.1739 24.0191 13.8892 23.9404 13.5435C23.8618 13.1979 23.6867 12.6674 23.4152 11.9522L22.574 9.79111L25.5177 8.27234L27.6848 12.4968L28.1149 12.2741ZM24.7196 9.93746L24.2366 10.1869L24.6273 11.1534C24.9088 11.8511 25.0798 12.3918 25.1401 12.7753C25.2005 13.1588 25.1805 13.5135 25.0802 13.8396L26.3783 13.1694L24.7196 9.93746Z" fill="black"/>
<path d="M30.5536 6.48335L30.7391 7.56931L29.0615 8.12133L29.4636 9.35114L30.9395 8.86546L31.2702 9.87655L29.7948 10.3624L30.2208 11.665L32.0108 11.075L32.3521 12.1187L29.1016 13.1889L27.2625 7.56576L30.5536 6.48335Z" fill="black"/>
<path d="M35.5283 6.03939C35.9902 6.29896 36.2736 6.74503 36.3787 7.37758C36.4875 8.03273 36.3751 8.56488 36.0415 8.97405C35.7078 9.38322 35.2005 9.64492 34.5196 9.75916L34.101 9.82904L34.4147 11.7187L32.8992 11.9719L31.9301 6.13465L33.6969 5.83965C34.4555 5.71336 35.0659 5.77993 35.5283 6.03939ZM34.7599 8.38087C34.8613 8.21437 34.8849 7.96603 34.8306 7.63586C34.7822 7.34471 34.6848 7.13776 34.5383 7.01501C34.3919 6.89226 34.1791 6.85442 33.9 6.90148L33.6235 6.9476L33.9221 8.74504L34.1983 8.69892C34.4711 8.65399 34.6583 8.54827 34.7599 8.38176V8.38087Z" fill="black"/>
<path d="M40.2011 11.2451L39.9521 10.0229L38.6111 10.0448L38.4017 11.2744L36.8401 11.2998L38.3061 5.35735L40.1399 5.32773L41.7886 11.2192L40.2011 11.2451ZM38.7972 8.9517L39.7307 8.93645L39.2237 6.44969L38.7972 8.9517Z" fill="black"/>
<path d="M47.2654 6.13448L46.3186 11.9754L44.8022 11.728L45.5637 7.03063L44.8011 6.90646L44.3088 8.72395C44.1309 9.39659 43.949 9.91757 43.7631 10.2869C43.5772 10.6562 43.3508 10.9298 43.084 11.1078C42.8172 11.2852 42.4686 11.3937 42.038 11.4333L41.8479 10.324C42.0283 10.2729 42.1722 10.1901 42.2796 10.0756C42.387 9.96115 42.4863 9.78187 42.5774 9.53779C42.6686 9.29371 42.7848 8.91292 42.9259 8.39543L43.6962 5.55372L47.2654 6.13448Z" fill="black"/>
<path d="M51.5707 10.0768C51.8214 10.4993 51.844 11.0111 51.6386 11.6123C51.4222 12.2459 51.0769 12.6613 50.6029 12.8584C50.1288 13.0555 49.5679 13.0428 48.9201 12.8201L47.0249 12.1687L48.9371 6.57065L50.3905 7.07016L49.7495 8.94636L50.1916 9.09821C50.8602 9.3281 51.32 9.65431 51.5707 10.0768ZM49.736 11.7054C49.8932 11.6036 50.0223 11.405 50.1235 11.1096C50.217 10.8357 50.2322 10.6114 50.1693 10.4368C50.1063 10.2621 49.9463 10.1306 49.6892 10.0424L49.4082 9.94575L48.8331 11.6291L49.1544 11.7396C49.3846 11.8188 49.5785 11.8073 49.736 11.7054Z" fill="black"/>
<path d="M53.8095 15.0429L54.9872 12.8747L53.8843 12.2716L52.7064 14.4398L51.3573 13.7024L54.1808 8.50628L55.5299 9.24367L54.4535 11.2251L55.5566 11.8282L56.6331 9.84696L57.9829 10.5842L55.1589 15.7803L53.8095 15.0429Z" fill="black"/>
<path d="M58.0536 18.0189L58.6338 16.9156L57.5832 16.0794L56.644 16.8969L55.4205 15.9231L60.3109 12.2613L61.747 13.4046L59.2971 19.0087L58.0536 18.0189ZM58.4182 15.3526L59.15 15.9353L60.3302 13.69L58.4182 15.3526Z" fill="black"/>
<path d="M66.7059 18.4526L62.2977 22.3858L61.2765 21.2344L62.8303 19.8478L62.5543 19.5363L60.4586 20.312L59.3698 19.0841L61.8825 18.3689C61.793 18.0461 61.7966 17.7428 61.8934 17.4589C61.9902 17.1751 62.195 16.8936 62.5078 16.6144C62.9938 16.1808 63.4803 16.0012 63.967 16.0757C64.4538 16.1502 64.9549 16.4781 65.4702 17.0595L66.7059 18.4526ZM63.6173 19.146L64.8855 18.0142L64.6993 17.8043C64.3574 17.4183 63.9643 17.4234 63.52 17.8196C63.3172 18.0006 63.2075 18.1821 63.1907 18.3641C63.174 18.5461 63.2372 18.7176 63.3803 18.8785L63.6173 19.146Z" fill="black"/>
<path d="M103.464 31.008C101.32 31.008 99.656 30.424 98.472 29.256C97.304 28.072 96.72 26.424 96.72 24.312C96.72 23.304 96.872 22.4 97.176 21.6C97.48 20.784 97.92 20.088 98.496 19.512C99.072 18.936 99.776 18.496 100.608 18.192C101.456 17.872 102.408 17.712 103.464 17.712V15.528H106.92V17.712C107.976 17.712 108.92 17.872 109.752 18.192C110.6 18.496 111.312 18.936 111.888 19.512C112.464 20.072 112.904 20.76 113.208 21.576C113.512 22.392 113.664 23.304 113.664 24.312C113.664 26.424 113.072 28.072 111.888 29.256C110.72 30.424 109.064 31.008 106.92 31.008V33.264H103.464V31.008ZM103.584 20.376C103.008 20.376 102.512 20.472 102.096 20.664C101.68 20.856 101.336 21.128 101.064 21.48C100.792 21.816 100.592 22.224 100.464 22.704C100.336 23.184 100.272 23.72 100.272 24.312C100.272 25.512 100.536 26.488 101.064 27.24C101.592 27.976 102.432 28.344 103.584 28.344V20.376ZM106.8 28.344C107.952 28.344 108.792 27.976 109.32 27.24C109.848 26.488 110.112 25.512 110.112 24.312C110.112 23.72 110.048 23.184 109.92 22.704C109.792 22.224 109.592 21.816 109.32 21.48C109.048 21.128 108.704 20.856 108.288 20.664C107.872 20.472 107.376 20.376 106.8 20.376V28.344ZM115.575 15.864H125.151V18.696H119.031V22.728H124.791V25.56H119.031V30.168H125.391V33H115.575V15.864ZM125.93 30.168H127.298C127.73 29.352 128.058 28.56 128.282 27.792C128.522 27.008 128.69 26.208 128.786 25.392C128.898 24.576 128.962 23.736 128.978 22.872C129.01 21.992 129.026 21.048 129.026 20.04V15.864H138.938V30.168H140.546V36.384H137.354V33H129.122V36.384H125.93V30.168ZM135.554 30.168V18.696H132.314V21.48C132.314 22.152 132.29 22.872 132.242 23.64C132.21 24.408 132.146 25.176 132.05 25.944C131.954 26.712 131.818 27.464 131.642 28.2C131.482 28.92 131.274 29.576 131.018 30.168H135.554ZM141.989 15.864H151.565V18.696H145.445V22.728H151.205V25.56H145.445V30.168H151.805V33H141.989V15.864ZM153.544 15.864H159.592C160.472 15.864 161.208 16.016 161.8 16.32C162.408 16.608 162.896 16.992 163.264 17.472C163.632 17.952 163.896 18.504 164.056 19.128C164.216 19.736 164.296 20.36 164.296 21C164.296 21.896 164.16 22.672 163.888 23.328C163.632 23.968 163.264 24.496 162.784 24.912C162.32 25.328 161.752 25.64 161.08 25.848C160.408 26.056 159.664 26.16 158.848 26.16H157V33H153.544V15.864ZM158.536 23.616C159.224 23.616 159.776 23.408 160.192 22.992C160.624 22.576 160.84 21.928 160.84 21.048C160.84 20.184 160.656 19.528 160.288 19.08C159.92 18.632 159.304 18.408 158.44 18.408H157V23.616H158.536ZM168.364 15.864H172.636L177.172 33H173.572L172.78 29.376H168.22L167.428 33H163.828L168.364 15.864ZM172.18 26.544L170.524 18.84H170.476L168.82 26.544H172.18ZM178.652 33.144C178.428 33.144 178.156 33.128 177.836 33.096C177.532 33.064 177.308 33.032 177.164 33V30.048C177.244 30.064 177.332 30.08 177.428 30.096C177.54 30.096 177.612 30.096 177.644 30.096C177.916 30.096 178.164 30.08 178.388 30.048C178.628 30 178.836 29.848 179.012 29.592C179.204 29.32 179.364 28.896 179.492 28.32C179.636 27.744 179.748 26.928 179.828 25.872C179.924 24.816 179.996 23.48 180.044 21.864C180.092 20.232 180.116 18.232 180.116 15.864H189.884V33H186.428V18.696H183.38C183.38 20.712 183.348 22.472 183.284 23.976C183.236 25.48 183.148 26.768 183.02 27.84C182.892 28.912 182.708 29.792 182.468 30.48C182.244 31.168 181.956 31.712 181.604 32.112C181.252 32.496 180.828 32.768 180.332 32.928C179.852 33.072 179.292 33.144 178.652 33.144ZM192.286 15.864H195.742V22.344H197.566C198.446 22.344 199.222 22.44 199.894 22.632C200.582 22.808 201.158 23.104 201.622 23.52C202.086 23.936 202.438 24.48 202.678 25.152C202.934 25.824 203.062 26.64 203.062 27.6C203.062 28.576 202.934 29.408 202.678 30.096C202.438 30.784 202.078 31.344 201.598 31.776C201.134 32.208 200.558 32.52 199.87 32.712C199.198 32.904 198.43 33 197.566 33H192.286V15.864ZM196.702 30.384C197.742 30.384 198.47 30.192 198.886 29.808C199.318 29.408 199.534 28.68 199.534 27.624C199.534 27.096 199.47 26.664 199.342 26.328C199.23 25.976 199.062 25.704 198.838 25.512C198.614 25.304 198.326 25.16 197.974 25.08C197.638 25 197.246 24.96 196.798 24.96H195.742V30.384H196.702ZM204.848 15.864H208.304V22.416H212.336V15.864H215.792V33H212.336V25.392H208.304V33H204.848V15.864ZM221.52 15.864H225.792L230.328 33H226.728L225.936 29.376H221.376L220.584 33H216.984L221.52 15.864ZM225.336 26.544L223.68 18.84H223.632L221.976 26.544H225.336ZM233.992 25.992C233.064 25.656 232.336 25.088 231.808 24.288C231.28 23.488 231.016 22.432 231.016 21.12C231.016 20.192 231.144 19.4 231.4 18.744C231.656 18.072 232.016 17.528 232.48 17.112C232.96 16.68 233.536 16.368 234.208 16.176C234.88 15.968 235.624 15.864 236.44 15.864H242.08V33H238.648V26.4H237.4L234.136 33H230.32L233.992 25.992ZM238.672 23.856V18.408H237.304C236.344 18.408 235.64 18.616 235.192 19.032C234.76 19.432 234.544 20.128 234.544 21.12C234.544 22.16 234.76 22.88 235.192 23.28C235.624 23.664 236.296 23.856 237.208 23.856H238.672ZM103.464 60.008C101.32 60.008 99.656 59.424 98.472 58.256C97.304 57.072 96.72 55.424 96.72 53.312C96.72 52.304 96.872 51.4 97.176 50.6C97.48 49.784 97.92 49.088 98.496 48.512C99.072 47.936 99.776 47.496 100.608 47.192C101.456 46.872 102.408 46.712 103.464 46.712V44.528H106.92V46.712C107.976 46.712 108.92 46.872 109.752 47.192C110.6 47.496 111.312 47.936 111.888 48.512C112.464 49.072 112.904 49.76 113.208 50.576C113.512 51.392 113.664 52.304 113.664 53.312C113.664 55.424 113.072 57.072 111.888 58.256C110.72 59.424 109.064 60.008 106.92 60.008V62.264H103.464V60.008ZM103.584 49.376C103.008 49.376 102.512 49.472 102.096 49.664C101.68 49.856 101.336 50.128 101.064 50.48C100.792 50.816 100.592 51.224 100.464 51.704C100.336 52.184 100.272 52.72 100.272 53.312C100.272 54.512 100.536 55.488 101.064 56.24C101.592 56.976 102.432 57.344 103.584 57.344V49.376ZM106.8 57.344C107.952 57.344 108.792 56.976 109.32 56.24C109.848 55.488 110.112 54.512 110.112 53.312C110.112 52.72 110.048 52.184 109.92 51.704C109.792 51.224 109.592 50.816 109.32 50.48C109.048 50.128 108.704 49.856 108.288 49.664C107.872 49.472 107.376 49.376 106.8 49.376V57.344ZM116.84 62.096C116.696 62.096 116.576 62.096 116.48 62.096C116.384 62.096 116.28 62.088 116.168 62.072C116.072 62.072 115.952 62.064 115.808 62.048C115.68 62.048 115.504 62.032 115.28 62V59.384C115.616 59.432 115.952 59.456 116.288 59.456C116.848 59.456 117.256 59.312 117.512 59.024C117.768 58.736 118.008 58.328 118.232 57.8L118.4 57.416L113.696 44.864H117.536L120.056 53.288L122.48 44.864H126.08L121.976 57.2C121.688 58.096 121.4 58.856 121.112 59.48C120.84 60.088 120.52 60.592 120.152 60.992C119.784 61.376 119.336 61.656 118.808 61.832C118.28 62.008 117.624 62.096 116.84 62.096ZM130.149 47.696H126.405V44.864H137.349V47.696H133.605V62H130.149V47.696ZM138.848 44.864H148.856V47.696H142.304V51.464H144.416C145.28 51.464 146.048 51.552 146.72 51.728C147.408 51.904 147.984 52.192 148.448 52.592C148.912 52.992 149.264 53.528 149.504 54.2C149.76 54.856 149.888 55.664 149.888 56.624C149.888 57.6 149.76 58.432 149.504 59.12C149.248 59.792 148.872 60.344 148.376 60.776C147.88 61.208 147.28 61.52 146.576 61.712C145.872 61.904 145.064 62 144.152 62H138.848V44.864ZM143.528 59.36C144.024 59.36 144.448 59.32 144.8 59.24C145.152 59.16 145.44 59.016 145.664 58.808C145.904 58.6 146.08 58.32 146.192 57.968C146.304 57.616 146.36 57.16 146.36 56.6C146.36 55.624 146.128 54.968 145.664 54.632C145.216 54.28 144.536 54.104 143.624 54.104H142.304V59.36H143.528ZM157.516 62.264C156.22 62.264 155.188 62.056 154.42 61.64C153.652 61.208 153.06 60.608 152.644 59.84C152.244 59.056 151.98 58.128 151.852 57.056C151.74 55.968 151.684 54.76 151.684 53.432C151.684 52.136 151.74 50.944 151.852 49.856C151.98 48.752 152.244 47.808 152.644 47.024C153.06 46.24 153.652 45.632 154.42 45.2C155.188 44.752 156.22 44.528 157.516 44.528C158.812 44.528 159.844 44.752 160.612 45.2C161.38 45.632 161.964 46.24 162.364 47.024C162.78 47.808 163.044 48.752 163.156 49.856C163.284 50.944 163.348 52.136 163.348 53.432C163.348 54.76 163.284 55.968 163.156 57.056C163.044 58.128 162.78 59.056 162.364 59.84C161.964 60.608 161.38 61.208 160.612 61.64C159.844 62.056 158.812 62.264 157.516 62.264ZM157.516 59.792C158.028 59.792 158.436 59.68 158.74 59.456C159.06 59.216 159.3 58.848 159.46 58.352C159.636 57.84 159.748 57.184 159.796 56.384C159.86 55.568 159.892 54.584 159.892 53.432C159.892 52.28 159.86 51.304 159.796 50.504C159.748 49.704 159.636 49.048 159.46 48.536C159.3 48.024 159.06 47.656 158.74 47.432C158.436 47.192 158.028 47.072 157.516 47.072C157.004 47.072 156.588 47.192 156.268 47.432C155.964 47.656 155.724 48.024 155.548 48.536C155.388 49.048 155.276 49.704 155.212 50.504C155.164 51.304 155.14 52.28 155.14 53.432C155.14 54.584 155.164 55.568 155.212 56.384C155.276 57.184 155.388 57.84 155.548 58.352C155.724 58.848 155.964 59.216 156.268 59.456C156.588 59.68 157.004 59.792 157.516 59.792ZM165.199 62.144C164.975 62.144 164.703 62.128 164.383 62.096C164.079 62.064 163.855 62.032 163.711 62V59.048C163.791 59.064 163.879 59.08 163.975 59.096C164.087 59.096 164.159 59.096 164.191 59.096C164.463 59.096 164.711 59.08 164.935 59.048C165.175 59 165.383 58.848 165.559 58.592C165.751 58.32 165.911 57.896 166.039 57.32C166.183 56.744 166.295 55.928 166.375 54.872C166.471 53.816 166.543 52.48 166.591 50.864C166.639 49.232 166.663 47.232 166.663 44.864H176.431V62H172.975V47.696H169.927C169.927 49.712 169.895 51.472 169.831 52.976C169.783 54.48 169.695 55.768 169.567 56.84C169.439 57.912 169.255 58.792 169.015 59.48C168.791 60.168 168.503 60.712 168.151 61.112C167.799 61.496 167.375 61.768 166.879 61.928C166.399 62.072 165.839 62.144 165.199 62.144ZM178.833 44.864H182.289V51.344H184.113C184.993 51.344 185.769 51.44 186.441 51.632C187.129 51.808 187.705 52.104 188.169 52.52C188.633 52.936 188.985 53.48 189.225 54.152C189.481 54.824 189.609 55.64 189.609 56.6C189.609 57.576 189.481 58.408 189.225 59.096C188.985 59.784 188.625 60.344 188.145 60.776C187.681 61.208 187.105 61.52 186.417 61.712C185.745 61.904 184.977 62 184.113 62H178.833V44.864ZM183.249 59.384C184.289 59.384 185.017 59.192 185.433 58.808C185.865 58.408 186.081 57.68 186.081 56.624C186.081 56.096 186.017 55.664 185.889 55.328C185.777 54.976 185.609 54.704 185.385 54.512C185.161 54.304 184.873 54.16 184.521 54.08C184.185 54 183.793 53.96 183.345 53.96H182.289V59.384H183.249ZM191.395 44.864H194.851V51.416H198.883V44.864H202.339V62H198.883V54.392H194.851V62H191.395V44.864ZM208.067 44.864H212.339L216.875 62H213.275L212.483 58.376H207.923L207.131 62H203.531L208.067 44.864ZM211.883 55.544L210.227 47.84H210.179L208.523 55.544H211.883ZM220.539 54.992C219.611 54.656 218.883 54.088 218.355 53.288C217.827 52.488 217.563 51.432 217.563 50.12C217.563 49.192 217.691 48.4 217.947 47.744C218.203 47.072 218.563 46.528 219.027 46.112C219.507 45.68 220.083 45.368 220.755 45.176C221.427 44.968 222.171 44.864 222.987 44.864H228.627V62H225.195V55.4H223.947L220.683 62H216.867L220.539 54.992ZM225.219 52.856V47.408H223.851C222.891 47.408 222.187 47.616 221.739 48.032C221.307 48.432 221.091 49.128 221.091 50.12C221.091 51.16 221.307 51.88 221.739 52.28C222.171 52.664 222.843 52.856 223.755 52.856H225.219ZM237.082 62.144C236.858 62.144 236.586 62.128 236.266 62.096C235.962 62.064 235.738 62.032 235.594 62V59.048C235.674 59.064 235.762 59.08 235.858 59.096C235.97 59.096 236.042 59.096 236.074 59.096C236.346 59.096 236.594 59.08 236.818 59.048C237.058 59 237.266 58.848 237.442 58.592C237.634 58.32 237.794 57.896 237.922 57.32C238.066 56.744 238.178 55.928 238.258 54.872C238.354 53.816 238.426 52.48 238.474 50.864C238.522 49.232 238.546 47.232 238.546 44.864H248.314V62H244.858V47.696H241.81C241.81 49.712 241.778 51.472 241.714 52.976C241.666 54.48 241.578 55.768 241.45 56.84C241.322 57.912 241.138 58.792 240.898 59.48C240.674 60.168 240.386 60.712 240.034 61.112C239.682 61.496 239.258 61.768 238.762 61.928C238.282 62.072 237.722 62.144 237.082 62.144ZM250.716 44.864H254.004V55.856L258.204 44.864H261.924V62H258.636V51.032L254.436 62H250.716V44.864ZM264.429 44.864H273.573V47.696H267.885V62H264.429V44.864ZM276.645 44.864H280.917L285.453 62H281.853L281.061 58.376H276.501L275.709 62H272.109L276.645 44.864ZM280.461 55.544L278.805 47.84H278.757L277.101 55.544H280.461Z" fill="black"/>
</svg>
