<svg width="120" height="120" viewBox="0 0 120 120" fill="none" xmlns="http://www.w3.org/2000/svg">
<g clip-path="url(#clip0_3_71)">
<path d="M60 15C35.16 15 15 35.16 15 60C15 84.84 35.16 105 60 105C84.84 105 105 84.84 105 60C105 35.16 84.84 15 60 15ZM67.74 69.09C67.83 69.81 68.28 70.17 69 70.17C69.36 70.17 69.54 70.08 69.81 69.9C69.99 69.72 70.08 69.45 70.17 69.27C70.17 69 70.17 68.01 70.26 66.21V60.9C70.26 59.91 70.17 59.28 69.99 58.92C69.81 58.56 69.45 58.38 69 58.38C68.73 58.38 68.46 58.47 68.28 58.65C68.1 58.83 67.92 59.01 67.92 59.28C67.83 59.46 67.83 60 67.83 60.72H61.35L61.62 47.49H75.66V51.72H67.56V56.13C68.55 54.96 69.9 54.33 71.43 54.33C73.23 54.33 74.58 54.87 75.48 55.86C76.38 56.85 76.83 58.83 76.83 61.71V65.4C76.83 67.29 76.74 68.64 76.56 69.45C76.38 70.35 76.02 71.16 75.39 71.88C74.85 72.6 74.04 73.14 72.96 73.59C71.88 73.95 70.62 74.22 69.18 74.22C67.47 74.22 66.03 73.95 64.77 73.32C63.51 72.69 62.61 71.88 62.07 70.71C61.53 69.54 61.26 67.74 61.26 65.31V63.87H67.83V65.49C67.56 67.11 67.65 68.37 67.74 69.09ZM60 36.87C47.13 36.87 36.69 47.31 36.69 60.18C36.69 73.05 47.22 83.4 60 83.4C66.93 83.4 73.32 80.43 77.73 75.21H90.51C90.24 75.93 89.61 77.01 89.07 77.91C82.86 88.08 71.97 94.2 60 94.2C41.19 94.2 25.89 78.9 25.89 60.09C25.89 41.28 41.19 25.98 60 25.98C72.42 25.98 83.85 32.73 89.79 43.53C91.23 46.14 90.33 49.38 87.72 50.91C85.11 52.35 81.78 51.45 80.34 48.84C76.29 41.46 68.46 36.87 60 36.87ZM51.09 64.5C50.46 64.86 49.65 65.04 48.66 65.04C47.49 65.04 46.41 64.68 45.51 64.05C44.61 63.42 43.98 62.61 43.8 61.71C43.53 60.81 43.44 59.55 43.44 58.02V55.95C43.44 54.15 43.53 52.71 43.62 51.9C43.8 51 44.16 50.19 44.7 49.38C45.33 48.66 46.14 48.03 47.22 47.58C48.3 47.13 49.56 46.95 50.91 46.95C52.62 46.95 54.06 47.22 55.23 47.67C56.31 48.12 57.21 48.84 57.84 49.74C58.47 50.64 58.83 51.63 58.92 52.62C59.01 53.61 59.1 55.59 59.1 58.47V62.07C59.1 65.22 59.1 67.29 59.01 68.28C58.92 69.36 58.56 70.35 57.93 71.25C57.3 72.15 56.4 72.87 55.23 73.32C54.06 73.77 52.8 74.04 51.27 74.04C49.47 74.04 47.94 73.77 46.77 73.14C45.6 72.51 44.79 71.7 44.25 70.62C43.71 69.54 43.44 68.19 43.44 66.57H50.01C50.01 67.83 50.01 68.55 50.1 68.91C50.1 69.27 50.28 69.45 50.46 69.72C50.73 69.9 51 70.08 51.45 70.08C51.81 70.08 52.08 69.99 52.26 69.81C52.44 69.63 52.62 69.36 52.62 69C52.62 68.64 52.62 68.01 52.62 67.02V62.88C52.17 63.6 51.72 64.14 51.09 64.5Z" fill="#BB0001"/>
<path d="M52.5299 53.79C52.5299 52.62 52.4399 51.9 52.2599 51.54C52.0799 51.18 51.7199 51 51.2699 51C50.9999 51 50.7299 51.18 50.3699 51.45C50.0999 51.72 49.9199 52.44 49.9199 53.7V58.56C49.9199 59.64 50.0999 60.36 50.3699 60.63C50.6399 60.9 50.9099 60.99 51.2699 60.99C51.7199 60.99 52.0799 60.81 52.2599 60.54C52.4399 60.27 52.6199 59.55 52.6199 58.65V53.79H52.5299Z" fill="#BB0001"/>
<path d="M85.0199 50.28C87.3064 50.28 89.1599 48.4265 89.1599 46.14C89.1599 43.8535 87.3064 42 85.0199 42C82.7334 42 80.8799 43.8535 80.8799 46.14C80.8799 48.4265 82.7334 50.28 85.0199 50.28Z" fill="#BB0001"/>
</g>
<defs>
<clipPath id="clip0_3_71">
<rect width="90" height="90" fill="white" transform="translate(15 15)"/>
</clipPath>
</defs>
</svg>
