<svg width="120" height="120" viewBox="0 0 120 120" fill="none" xmlns="http://www.w3.org/2000/svg">
<path d="M83.0096 12.4164C83.8439 12.2651 84.7162 12.1516 85.3231 11.849C85.7025 11.622 86.1197 11.2437 86.1197 10.7142C86.1577 9.76847 85.3231 9.54152 84.3371 9.57934C83.3511 9.61715 81.8716 9.95761 81.189 10.4872C80.5821 10.9411 80.127 12.1138 80.7339 13.0216C81.3407 12.7947 82.1373 12.5677 83.0096 12.4164ZM81.6062 15.2913C81.151 16.4639 81.0753 17.8257 80.7719 19.1118C80.3167 21.0032 79.7855 22.7811 79.5581 24.8616C79.4441 26.0721 79.4441 27.5852 79.9373 28.4174C80.051 28.6065 80.127 28.6443 80.2787 28.6443C80.4304 28.6065 80.4684 28.5309 80.5441 28.3795C80.6578 27.9635 80.6202 27.2825 80.6202 26.8286C80.6202 26.0343 80.6578 25.3155 80.7719 24.7481C80.9993 23.4242 81.3787 22.4028 81.6062 21.1924C81.9856 19.3766 82.0993 17.334 82.9716 15.9343C83.1233 15.6696 83.7682 15.0265 83.5028 14.3834C83.3888 14.1186 82.9336 13.9295 82.6682 13.9673C82.175 14.0808 81.7959 14.8373 81.6062 15.2913ZM72.4274 24.1807C72.8068 24.0672 73.4137 23.8781 73.4894 23.4242C73.5274 23.1215 73.262 22.8189 73.0723 22.7054C72.5791 22.4406 71.2136 22.4406 70.5311 22.4785C67.8758 22.592 65.3346 22.9702 62.9073 23.3485C60.5178 23.7268 58.0903 24.0294 55.4353 24.332C52.9699 24.6346 50.4287 24.8994 48.0012 25.3912C46.8255 25.6181 45.7255 25.9208 44.5118 26.1477C43.867 26.2612 43.2981 26.299 42.6912 26.4503C42.1602 26.5638 41.4775 26.753 41.174 27.0556C40.9086 27.3204 40.681 28.2283 40.9844 28.7578C41.212 29.1739 41.9706 29.0983 42.5774 29.0226C43.6015 28.8713 44.398 28.5687 45.2704 28.2661C45.6876 28.1147 46.1427 27.9256 46.6358 28.0391C46.5979 29.6279 46.029 32.011 47.1668 32.8053C47.9633 31.7083 47.8116 29.6657 47.8496 27.8121C50.5804 26.9421 53.8802 26.753 56.9904 26.299C60.1005 25.8451 63.1728 25.3155 66.321 24.9751C66.7381 26.6395 66.6621 28.8713 67.4207 30.2331C67.5347 30.1574 67.6864 30.2331 67.8381 30.2331C68.4827 28.72 67.8001 26.7151 67.9138 24.8994C69.3173 24.6346 71.0239 24.5968 72.4274 24.1807ZM76.0686 56.6745C77.4721 54.1779 78.4581 51.4543 79.8616 48.9577C80.5441 47.7473 81.3027 46.5368 81.9476 45.2884C82.6302 44.0399 83.237 42.7538 83.9199 41.4677C84.6025 40.2195 85.2474 38.9334 85.8543 37.6094C86.4231 36.2855 86.9543 34.9237 87.6749 33.6375C88.0163 33.0323 88.3575 32.5027 88.7369 31.784C89.0023 31.2544 89.4575 30.3087 89.3815 29.5522C89.3438 29.0226 88.9643 28.8335 88.3955 28.8335C87.2954 28.8713 86.1197 28.9848 85.0197 29.0226C81.6822 29.1739 78.3064 29.3631 75.0066 29.6279C70.6448 29.9683 66.4347 30.4601 62.3383 31.1409C56.1939 32.1245 50.2011 33.1836 43.9049 33.978C41.8568 34.2428 39.7328 34.4319 37.6846 34.848C37.6467 35.7559 37.8363 36.5124 38.1018 37.1933C38.1777 37.3825 38.2536 37.7607 38.4052 37.8364C38.519 37.8742 38.9363 37.8364 39.2397 37.8364C41.1361 37.7229 42.7291 37.269 44.3222 36.9285C47.3185 36.3233 50.2011 36.0207 53.0079 35.3398C53.9561 35.1128 54.9422 35.0372 56.0042 34.9237C58.0145 34.6967 60.0247 34.3184 61.9211 33.978C62.1866 33.9402 62.4142 33.9023 62.6039 33.8267C62.7935 33.751 62.9452 33.6375 63.1728 33.5241C63.59 33.3728 64.1209 33.3349 64.614 33.2593C65.6381 33.108 66.6621 33.0323 67.8001 32.9945C69.9622 32.9188 72.1619 32.7675 74.0963 32.4271C75.0446 32.2758 76.0306 32.0866 77.0546 31.9731C80.127 31.5571 83.5405 31.5949 86.9163 31.6327C86.4611 32.9188 85.8543 34.0915 85.2854 35.302C84.7162 36.5124 84.1854 37.7229 83.6165 38.9711C82.5165 41.3923 81.2647 43.6995 80.089 46.045C78.9132 48.3902 77.6995 50.6977 76.5618 53.1566C76.0306 54.329 75.4617 55.5394 74.9309 56.8256C74.5514 57.6959 74.21 58.7173 73.7928 59.7006C73.6791 59.9654 73.4894 60.5329 73.3377 60.6086C73.186 60.684 72.6171 60.6463 72.2757 60.6463C70.4174 60.5706 68.8241 60.4192 66.9655 60.3435C66.2073 60.3058 65.4863 60.3815 64.8038 60.4192C63.4004 60.4949 61.959 60.5329 60.4798 60.5329C59.0006 60.5329 57.4835 60.4949 56.0422 60.5329C53.1216 60.6463 50.3528 60.7977 47.6599 61.0244C46.2565 61.1381 44.9669 61.2515 43.6394 61.4786C42.3119 61.6677 40.9844 61.8948 39.581 61.8567H39.5431C38.6708 58.5659 38.1018 55.0099 37.6087 51.1138C37.495 50.2058 37.3812 49.2225 37.2674 48.2768C37.1157 46.3098 37.1536 44.305 36.7743 42.4514C36.6226 41.5814 36.7364 40.3329 36.433 39.6143C36.3571 39.4629 36.2433 39.3115 36.0916 39.2739C35.3709 38.9711 35.2951 39.8791 35.2572 40.5977C35.2192 41.1275 35.2951 41.8081 35.333 42.2623C35.4847 43.3213 35.6744 44.305 35.8261 45.3261C36.1295 47.4825 36.3192 49.6386 36.5467 51.719C36.8122 53.8752 37.1157 55.8799 37.495 57.885C37.7605 59.3602 38.026 60.8734 38.4811 62.2352C38.6328 62.651 38.8225 63.2186 39.1259 63.4076C39.3535 63.5213 39.7707 63.521 40.15 63.559C41.2499 63.6724 42.274 63.37 43.1464 63.1809C44.3601 62.9158 45.7634 62.7267 47.1289 62.651C49.9356 62.4243 52.7803 62.1972 55.587 62.0838C59.9868 61.8567 64.4623 61.9324 68.7485 61.7434C70.1896 61.6677 71.6308 61.592 72.9962 61.8947C72.9585 62.0081 72.9585 62.1215 72.8825 62.2352C72.8445 62.3486 72.7308 62.462 72.8068 62.5377C73.262 62.6133 73.1103 62.0838 73.2997 61.9701C73.3377 61.9701 73.4514 61.9701 73.5274 61.9324C73.7171 61.8567 73.9446 61.781 74.1343 61.7434C75.1203 61.592 76.2203 61.8191 77.1686 61.7053C76.9789 61.2515 76.4477 61.1001 75.9169 60.9491C75.3857 60.8354 74.7792 60.722 74.1723 60.7597C74.6274 59.1711 75.348 57.9226 76.0686 56.6745ZM74.5134 38.82C74.324 39.7277 74.3617 40.7491 74.9309 41.2786C75.348 41.6571 75.9926 41.7704 76.7135 41.7328C77.9272 41.6571 78.9513 41.0895 79.7855 40.3709C80.5061 39.7657 81.3787 38.7443 81.3787 37.4959C81.3787 36.5881 80.8096 36.0207 80.165 35.6424C79.8236 35.4533 79.4821 35.3398 79.103 35.1885C78.7235 35.0372 78.3064 34.7345 77.8892 34.8102C76.9409 34.9993 75.9169 35.302 75.0446 35.6046C75.0446 35.8694 74.8169 36.0207 74.8549 36.2476C74.8929 36.4746 75.1963 36.4746 75.3857 36.5881C74.9686 37.3068 74.7031 37.9499 74.5134 38.82ZM77.7755 36.2476C78.4201 36.172 79.103 36.3233 79.5958 36.5502C80.0133 36.7394 80.5061 37.042 80.4304 37.7607C80.3924 38.2147 80.127 38.5929 79.8616 38.9334C79.4064 39.5386 78.7235 40.1438 77.9272 40.4086C77.0546 40.7114 75.5374 40.9381 75.4237 39.8034C75.3857 39.3496 75.5374 38.9334 75.6891 38.5929C75.9549 37.912 76.334 37.3446 76.8272 36.8529C77.0926 36.5881 77.358 36.3233 77.7755 36.2476ZM72.5791 39.1982C72.7688 38.1768 72.8825 37.1555 73.224 36.399C73.2997 36.2098 73.5654 36.0207 73.6031 35.8315C73.6031 35.7937 73.5654 35.7181 73.5654 35.6802C73.5274 35.2263 72.8445 34.848 72.3517 34.848C71.7448 34.8858 71.0999 35.1128 70.3793 35.302C69.7345 35.4533 68.9002 35.6424 68.2933 35.4533C67.9899 35.3776 67.8381 35.1128 67.4967 34.9993C67.307 35.2263 67.269 35.4911 67.0035 35.6424C66.7761 35.7559 66.3586 35.8315 66.0175 35.8694C64.9175 35.9828 63.6279 35.945 62.528 36.0207C61.0488 36.172 59.5695 36.3611 58.2041 36.5502C55.3215 36.8907 52.1734 37.3068 49.215 36.9664C48.0392 38.5173 48.6461 41.619 49.1012 43.4347C49.177 43.7375 49.2908 44.0399 49.3288 44.3427C49.3667 44.7965 49.2908 45.175 49.5563 45.3261C49.8598 45.4775 50.5046 45.2507 50.9218 45.175C52.401 44.9856 53.8423 44.9102 55.2457 44.7589C58.2041 44.4561 60.8591 44.0779 63.59 43.6618C66.3586 43.2456 69.6208 43.4347 72.0859 42.7161C71.7068 41.4677 72.3137 40.4086 72.5791 39.1982ZM71.7825 36.4746C71.7825 37.496 71.479 38.366 71.2516 39.2739C71.0619 40.1815 70.8722 41.0895 70.8345 42.1866C64.2349 43.0189 56.9904 43.208 50.1632 43.8509C49.708 42.527 49.8598 40.56 49.8598 38.9334C52.5527 38.366 55.5491 38.2525 58.3558 37.8742C61.1625 37.496 63.9692 37.042 66.9655 36.9285C66.8138 38.0634 66.5484 39.3496 66.4347 40.7491C66.3967 41.1272 66.3586 41.8081 66.5104 42.0352C66.6244 42.1486 66.8518 42.1109 67.0035 42.1866C67.7621 40.6734 67.8758 38.5173 68.331 36.7016C69.1656 36.5881 70.1516 36.4368 71.0239 36.3611C71.3273 36.3233 71.6688 36.2855 71.7825 36.4746ZM39.619 39.0848C39.1259 39.4252 38.557 39.7657 38.2156 40.2195C37.5708 41.0518 37.1157 42.8675 37.7225 44.0779C38.5949 45.7422 42.0085 45.4398 43.9429 44.8722C44.7394 44.6451 45.5359 44.305 46.1048 43.8509C46.6738 43.397 47.2047 42.7538 47.2806 41.8461C47.3185 41.1272 47.091 40.522 46.8634 40.0682C46.5979 39.5763 46.3324 39.1605 45.8772 38.8577C45.0807 38.3282 43.8291 38.6308 42.8429 38.782C42.5774 38.82 42.2361 38.8954 42.0085 38.82C41.6672 38.7063 41.8188 38.2525 41.2879 38.2525L41.2499 38.2903C40.4534 38.3282 40.15 38.7443 39.619 39.0848ZM43.2981 39.8414C43.9808 39.8034 44.6256 39.9168 45.0807 40.0682C45.6497 40.2952 46.2565 40.7114 46.3324 41.43C46.4082 41.9975 46.1048 42.527 45.8014 42.8295C44.7773 43.8889 42.3119 44.1913 40.2638 43.8509C39.5052 43.7375 38.7845 43.4727 38.7087 42.7161C38.6708 42.3757 38.7845 42.0732 38.8983 41.7328C38.9742 41.4677 39.1259 41.1275 39.3156 40.9761C39.5052 40.7871 39.8845 40.6734 40.1879 40.56C40.4914 40.4466 40.7948 40.3709 41.1361 40.2572C41.8947 40.0682 42.5395 39.8791 43.2981 39.8414ZM41.2879 53.0809C41.743 53.0809 42.3119 52.9295 42.7671 52.8161C43.7153 52.589 44.7014 52.4 45.6497 52.2109C46.1427 52.0972 46.6738 52.0595 47.1289 51.9081C47.2806 51.8704 47.3564 51.7191 47.4703 51.6434C47.7737 51.9461 48.1909 51.6434 48.5322 51.4543C48.7598 51.3409 48.9874 51.2272 49.2908 51.1895C49.8977 51.0758 50.5046 51.1138 51.2631 51.1138C51.339 51.0758 51.339 50.9624 51.4149 50.8867C51.5286 50.8111 51.87 50.8111 52.0976 50.8111C52.8182 50.7734 53.6527 50.8491 54.3354 50.7354C54.7905 50.66 55.1698 50.5086 55.587 50.4329C56.8387 50.0925 58.5834 50.2438 60.0247 50.1301C60.8971 50.0548 61.959 49.9411 62.8314 49.7897C64.614 49.5249 66.5864 49.3358 68.4827 49.1845C69.393 49.1091 70.3413 48.9577 71.1756 48.7686C71.5931 48.6549 71.9342 48.4659 72.3137 48.3145C72.9585 48.0877 74.0206 48.2011 74.0206 47.4445C74.0206 46.8393 73.1479 46.5368 72.4274 46.6502C72.3894 46.6502 72.3894 46.6502 72.3894 46.6502C71.0619 46.7259 69.6964 46.9907 68.369 47.1421C67.6484 47.2174 66.9655 47.1797 66.2449 47.1421C65.5244 47.104 64.8038 47.2174 64.1209 47.2554C61.3143 47.4825 58.5455 47.7473 55.8904 48.0497C50.4666 48.6173 45.6497 49.8277 40.3396 50.5086C39.9224 51.6814 40.1121 53.0429 41.2879 53.0809ZM64.0072 50.622C59.5316 51.1895 55.3974 51.9081 50.9597 52.589C49.5563 52.8161 47.4323 52.8918 45.8772 53.1566C45.2704 53.27 44.6635 53.3456 44.4739 53.6481C44.1325 54.1399 44.2842 55.6531 44.7014 55.9556C45.0807 56.2204 46.1048 56.0313 46.6358 55.9556C48.4185 55.6531 49.8977 55.0479 51.6804 54.7452C55.2457 54.1399 58.773 53.5347 62.3004 52.8538C63.4383 52.6271 64.576 52.3243 65.7898 52.1729C67.5724 51.9461 69.7725 51.9838 71.2896 51.4163C71.7448 51.2272 72.4274 50.8867 72.3517 50.3572C72.2757 49.752 71.3653 49.7143 70.6828 49.752C68.1793 49.8277 66.2449 50.3195 64.0072 50.622ZM68.9759 53.3833C67.1933 53.5727 65.4863 53.8752 63.7037 54.1023C61.4281 54.4047 58.9247 54.5938 56.4973 54.8965C54.1836 55.1613 51.7183 55.5018 49.5184 55.9179C47.9633 56.1827 45.9152 56.3341 44.3601 56.7502C43.8291 56.9013 43.2222 57.0527 42.9188 57.3174C42.5016 57.6579 42.4637 58.6792 42.8429 59.0574C43.1464 59.3602 43.5636 59.2088 44.0946 59.1331C44.4359 59.0574 44.7394 59.0574 45.0049 58.982C45.6117 58.8306 46.1806 58.6416 46.7117 58.4902C47.8875 58.1874 49.1391 57.9607 50.3528 57.7713C54.0319 57.166 57.9386 56.5988 61.7315 56.107C63.0211 55.9556 64.3486 55.8422 65.6004 55.6531C66.8138 55.4641 68.0656 55.1613 69.2793 54.9722C70.493 54.7832 71.7068 54.5938 72.6551 53.9885C72.0859 52.9295 70.2276 53.2323 68.9759 53.3833ZM73.4137 62.2729C73.6411 62.2729 73.6411 61.8947 73.3757 61.9701C73.224 62.0081 73.262 62.2729 73.4137 62.2729Z" fill="#E63A34"/>
<path d="M25.9535 70.9779C26.598 70.9401 28.7221 70.7888 29.1392 71.2048C29.405 71.4696 29.367 72.3775 29.367 73.0206C29.367 74.231 29.367 75.328 29.367 76.5764C29.367 77.0681 29.2909 78.0516 29.5567 78.2786C29.8221 78.5055 30.9979 78.3542 31.491 78.3542C31.8702 78.3542 32.1736 78.3542 32.515 78.3542C32.8565 78.3542 33.2736 78.3921 33.4254 78.2408C33.6528 78.0138 33.5771 77.1816 33.5771 76.5764C33.5771 75.2524 33.5771 74.3824 33.5771 72.9828C33.5771 72.3018 33.501 71.4696 33.8425 71.167C34.222 70.8644 35.0943 70.9401 35.8148 70.9401C36.6871 70.9401 37.6355 70.7888 37.9009 71.3184C38.0146 71.5453 38.0146 72.0371 38.0146 72.491C38.0146 78.0894 38.0146 83.3853 38.0146 88.9458C38.0146 89.8538 38.1663 91.2913 37.7111 91.6318C37.37 91.8586 36.5354 91.7829 35.9665 91.7829C35.1323 91.7829 34.0702 91.9342 33.7288 91.4804C33.4634 91.1019 33.5771 90.0052 33.5771 89.3243C33.5771 87.3192 33.6151 85.655 33.6151 83.6123C33.6151 83.2718 33.6528 82.7422 33.501 82.5909C33.2736 82.3261 32.0219 82.4774 31.5667 82.4774C31.1876 82.4774 30.8461 82.4774 30.5427 82.4774C30.2013 82.4774 29.7461 82.4396 29.5944 82.5909C29.2909 82.8557 29.4427 84.2555 29.4427 84.8227C29.4427 86.4873 29.4427 87.9625 29.4427 89.5891C29.4427 90.3457 29.5567 91.4047 29.1392 91.6695C28.7601 91.9342 27.9635 91.7829 27.3189 91.7829C26.5223 91.7829 25.4223 91.9342 25.1569 91.4424C24.8914 90.9886 25.0432 89.7781 25.0432 89.0215C25.0432 83.9527 25.0432 78.8082 25.0432 73.7393C25.0432 73.0206 24.9291 71.5453 25.2326 71.2048C25.3466 71.0157 25.6877 70.9779 25.9535 70.9779Z" fill="#E63A34"/>
<path d="M54.4384 90.2685C54.0969 88.9067 53.8315 87.6962 53.4521 86.3724C52.9589 84.5187 52.6178 83.1192 52.1246 81.19C51.4797 78.5421 50.8352 76.0455 50.1523 73.4354C50.0006 72.8302 49.7351 71.317 49.28 71.0522C48.9005 70.8253 47.7628 70.9388 47.1179 70.9388C46.2456 70.9388 45.3733 70.9388 44.8801 70.9766C44.0459 71.0522 44.0459 71.5062 43.8561 72.2249C42.415 78.2395 40.9355 84.4054 39.4943 90.3442C39.4183 90.7223 39.1909 91.3656 39.4183 91.6683C39.57 91.8574 40.0252 91.8194 40.3286 91.8194H41.3149C41.9598 91.8194 42.7941 91.9331 43.2112 91.7437C43.6664 91.5169 43.7424 90.6846 43.8941 90.0794C43.9698 89.8147 44.0078 89.5119 44.1216 89.1714C44.1976 88.9067 44.2733 88.5285 44.463 88.3771C44.6904 88.1881 45.2596 88.2638 45.6768 88.2638H48.1042C48.4834 88.2638 49.0146 88.1881 49.28 88.3395C49.5454 88.4905 49.5834 88.869 49.6591 89.1338C49.7351 89.4742 49.8108 89.7767 49.8868 90.0417C50.0386 90.609 50.1143 91.4413 50.5694 91.706C50.7972 91.8574 51.2143 91.8194 51.6314 91.8194H52.6935C53.2246 91.8194 54.3624 91.9331 54.5901 91.6303C54.8175 91.2899 54.5521 90.647 54.4384 90.2685ZM45.487 84.2163C45.4113 83.7244 45.6007 83.2327 45.7148 82.7031C45.9422 81.7196 46.1319 80.7739 46.3593 79.7147C46.4734 79.2608 46.549 78.6177 46.7388 78.2773C46.7388 78.2395 46.7768 78.2395 46.8145 78.2395H46.8525C47.1559 78.6177 47.1939 79.1851 47.3076 79.6769C47.5731 80.6604 47.8385 81.6439 48.0662 82.6653C48.1799 83.157 48.3697 83.6866 48.3316 84.1783C47.4974 84.292 46.3593 84.292 45.487 84.2163Z" fill="#E63A34"/>
<path d="M56.0685 72.6039C56.0685 78.2402 56.0685 83.6495 56.0685 89.3235C56.0685 90.1181 55.9548 91.3286 56.3339 91.631C56.7134 91.9715 58.1925 91.8201 58.9888 91.8201C64.2989 91.8201 69.3437 91.8201 74.5778 91.8201C75.2983 91.8201 76.6638 91.9715 77.0429 91.669C77.4604 91.3286 77.3464 90.0424 77.3464 89.1725C77.3464 84.0279 77.3464 78.9589 77.3464 73.7766C77.3464 73.0957 77.4981 71.7717 77.2327 71.3178C76.9292 70.826 75.9432 70.9395 75.0706 70.9395C74.388 70.9395 73.4397 70.8639 73.0986 71.2043C72.7571 71.5448 72.8709 72.5661 72.8709 73.3227C72.8709 77.9376 72.8709 82.2499 72.8709 86.7893C72.8709 87.1674 72.9089 87.6216 72.7952 87.7726C72.6434 87.962 72.1503 87.8863 71.8849 87.8863C71.5434 87.8863 71.202 87.8863 70.8985 87.8863C70.4434 87.8863 69.2676 87.9997 69.0402 87.7726C68.8505 87.6216 68.9262 87.2431 68.9262 86.7512C68.9262 82.1364 68.9262 77.6728 68.9262 73.0957C68.9262 72.377 69.0402 71.4691 68.7368 71.1665C68.3953 70.7882 67.447 70.9017 66.7644 70.9017C66.0815 70.9017 65.0955 70.826 64.7541 71.1287C64.375 71.4691 64.5267 72.5661 64.5267 73.3227C64.5267 77.5215 64.5267 81.6447 64.5267 85.8056C64.5267 86.3731 64.6024 87.5459 64.4126 87.7726C64.2609 87.924 63.8058 87.8863 63.4647 87.8863C63.1232 87.8863 62.8198 87.8863 62.5163 87.8863C61.9851 87.8863 60.9235 87.9997 60.6577 87.7726C60.3923 87.5078 60.544 86.4108 60.544 85.8056C60.544 81.569 60.544 77.3702 60.544 73.2848C60.544 72.6417 60.62 71.6583 60.4303 71.28C60.2025 70.8639 59.52 70.9017 58.8751 70.9017C58.2682 70.9017 57.5476 70.9017 57.1305 70.9395C55.9924 71.053 56.0685 71.5069 56.0685 72.6039Z" fill="#E63A34"/>
<path d="M79.8883 71.2419C79.5849 71.6201 79.6986 72.9819 79.6986 73.7385C79.6986 78.9587 79.6986 84.0655 79.6986 89.2854C79.6986 90.1177 79.5849 91.3282 79.964 91.6309C80.2298 91.8577 80.7986 91.82 81.3675 91.82C83.9467 91.82 86.3742 91.82 88.9534 91.82C89.8637 91.82 91.3429 91.9714 91.76 91.5929C92.0635 91.3282 91.9878 90.4959 91.9878 89.8153C91.9878 89.1344 92.0635 88.4911 91.8361 88.1507C91.6083 87.8102 90.66 87.9236 90.0531 87.9236C88.3842 87.9236 86.7913 87.9236 85.1224 87.9236C84.857 87.9236 84.3258 87.9993 84.2121 87.8482C84.0604 87.6968 84.1365 86.9779 84.1365 86.6375C84.1365 85.7675 84.1365 84.8975 84.1365 84.0655C84.1365 83.6871 84.0604 83.044 84.2502 82.8927C84.4776 82.7414 85.2362 82.817 85.6156 82.817C86.7157 82.817 87.4362 82.817 88.4603 82.817C88.8394 82.817 89.5223 82.8927 89.7497 82.7036C90.0154 82.4766 89.9014 81.4553 89.9014 81.0013C89.9014 80.4339 90.0154 79.5639 89.7877 79.2235C89.598 78.9208 89.0291 78.9587 88.4983 78.9587C87.4362 78.9587 86.7157 78.9587 85.6156 78.9587C85.1985 78.9587 84.4019 79.0721 84.2502 78.883C84.1364 78.7695 84.1741 78.2778 84.1741 77.9373C84.1741 77.5591 84.1741 77.2186 84.1741 76.916C84.1741 76.4242 84.0224 75.1759 84.2882 74.9489C84.4019 74.8355 84.781 74.8355 85.1224 74.8355C86.7157 74.8355 88.3085 74.8355 89.8637 74.8355C90.5463 74.8355 91.2292 74.8733 91.4946 74.5707C91.722 74.3059 91.6843 73.398 91.6843 72.9063C91.6843 72.3767 91.76 71.5823 91.5703 71.2797C91.3429 70.9393 90.774 70.9393 90.2048 70.9393C88.7637 70.9393 87.588 70.9393 86.1845 70.9393C84.4776 70.9393 82.3538 70.8636 80.7986 70.9771C80.3435 71.0149 80.0401 71.0149 79.8883 71.2419Z" fill="#E63A34"/>
<path d="M83.7899 98.3271C82.8796 97.6842 81.5142 97.3437 79.959 97.4571C79.3901 97.4948 78.8973 97.5705 78.4041 97.6842C77.0386 98.0623 76.0523 98.8946 75.5972 100.143C75.256 101.051 75.18 102.261 75.4078 103.245C75.8249 105.136 77.2284 106.233 79.1247 106.536C80.1487 106.687 81.2868 106.687 82.3108 106.422C84.0174 105.968 85.3451 104.72 85.4969 102.602C85.6106 100.483 84.89 99.1214 83.7899 98.3271ZM81.8936 104.001C81.135 104.871 79.2764 104.758 78.6695 103.774C78.1387 102.942 78.2144 101.24 78.5938 100.483C78.8213 100.067 79.3144 99.6512 80.073 99.5755C80.9833 99.4998 81.7039 99.8403 82.0454 100.332C82.6142 101.164 82.5382 103.283 81.8936 104.001Z" fill="#E63A34"/>
<path d="M40.0582 99.0455C39.8304 98.5537 39.4133 98.1375 38.9201 97.9105C38.0478 97.4946 36.8721 97.5703 35.6203 97.5703H31.9794C31.9414 97.5703 31.9414 97.608 31.9414 97.6457V106.46C32.9654 106.46 34.0275 106.498 35.0135 106.422V103.131C37.4409 103.244 39.565 103.055 40.1339 101.353C40.3616 100.71 40.3616 99.6884 40.0582 99.0455ZM37.2512 100.786C36.9478 101.391 35.9618 101.391 35.0135 101.353V99.4617C35.0135 99.4237 35.0135 99.386 35.0515 99.386C35.772 99.4237 36.4926 99.3103 36.9101 99.5751C37.2512 99.8021 37.4409 100.332 37.2512 100.786Z" fill="#E63A34"/>
<path d="M46.9989 97.6084H43.6991C42.4477 100.559 41.1959 103.51 39.9822 106.498H43.0922C43.282 106.044 43.3957 105.477 43.6234 105.022H47.0369C47.2266 105.514 47.3784 106.006 47.5301 106.498H50.7162C49.4644 103.51 48.2126 100.559 46.9989 97.6084ZM44.2303 103.093C44.5714 102.034 44.9509 100.975 45.2923 99.9536C45.6714 100.975 46.0129 102.034 46.3543 103.093H44.2303Z" fill="#E63A34"/>
<path d="M61.9809 104.417V97.5703H53.7125C53.6745 97.5703 53.6745 97.608 53.6745 97.646C53.7505 100.256 53.6368 102.677 52.8022 104.417H51.8538C51.8162 105.703 51.8538 107.065 51.8162 108.389H54.2813C54.2813 107.746 54.2437 107.065 54.3193 106.46C56.4054 106.46 58.5294 106.422 60.5775 106.498V108.389H63.043V104.417H61.9809ZM58.9089 104.417H55.7985C56.102 102.98 56.4814 101.58 56.4814 99.8398C56.4814 99.8021 56.4814 99.7641 56.5191 99.7641C57.3157 99.7641 58.188 99.7264 58.9466 99.8021C58.9089 101.353 58.9466 102.942 58.9089 104.417Z" fill="#E63A34"/>
<path d="M64.5984 97.646C64.5984 100.597 64.5984 103.509 64.5984 106.46C65.5464 106.46 66.4947 106.46 67.443 106.46C68.6945 104.871 69.9082 103.169 71.1219 101.656C71.1219 103.244 71.0839 104.909 71.16 106.46C72.1083 106.46 73.0563 106.46 74.0046 106.46C74.0046 103.509 74.0046 100.521 74.0046 97.5703C73.0563 97.5703 72.1083 97.5703 71.16 97.5703C69.9082 99.1592 68.6945 100.899 67.443 102.412C67.443 100.786 67.443 99.1969 67.443 97.5703C66.4947 97.5703 65.5464 97.5703 64.5984 97.5703C64.5984 97.6083 64.5984 97.646 64.5984 97.646Z" fill="#E63A34"/>
</svg>
