<svg width="24" height="24" viewBox="0 0 24 24" fill="none" xmlns="http://www.w3.org/2000/svg">
<path fill-rule="evenodd" clip-rule="evenodd" d="M9.16481 14.2748L9.16458 14.2747L9.16483 14.2744L9.16485 14.2742L9.16498 14.2743L16.3952 7.74958C16.7125 7.46794 16.3259 7.3306 15.9047 7.58606L6.98107 13.2158L3.12657 12.0128C2.29416 11.7579 2.28819 11.1859 3.31345 10.7747L18.3336 4.983C19.0196 4.67155 19.6817 5.14777 19.4198 6.19774L16.8619 18.2516C16.6833 19.1082 16.1657 19.3131 15.4486 18.9174L11.5521 16.0386L9.67916 17.8597C9.67326 17.8655 9.66738 17.8712 9.66154 17.8769C9.45206 18.0808 9.27875 18.2496 8.89951 18.2496L9.16481 14.2748Z" fill="#3B90CE"/>
</svg>
