<svg width="24" height="24" viewBox="0 0 24 24" fill="none" xmlns="http://www.w3.org/2000/svg">
<path fill-rule="evenodd" clip-rule="evenodd" d="M16.5793 14.2147C16.3476 14.0988 15.2085 13.5383 14.9961 13.4609C14.7836 13.3836 14.6292 13.3449 14.4747 13.5768C14.3202 13.8088 13.8762 14.3308 13.741 14.4854C13.6058 14.64 13.4707 14.6594 13.239 14.5434C13.0072 14.4274 12.2606 14.1828 11.3756 13.3933C10.6867 12.7789 10.2217 12.0201 10.0865 11.7881C9.95137 11.5562 10.0721 11.4308 10.1882 11.3152C10.2924 11.2114 10.4199 11.0446 10.5357 10.9093C10.6516 10.774 10.6902 10.6773 10.7674 10.5228C10.8446 10.3681 10.806 10.2327 10.7481 10.1168C10.6902 10.0008 10.2267 8.86023 10.0337 8.39623C9.84559 7.9445 9.65456 8.00568 9.51232 7.99848C9.37732 7.99177 9.22267 7.99034 9.06824 7.99034C8.91376 7.99034 8.66271 8.04833 8.45034 8.28026C8.23793 8.51228 7.63933 9.07286 7.63933 10.2134C7.63933 11.3539 8.46964 12.4557 8.58552 12.6103C8.70135 12.765 10.2194 15.1054 12.5439 16.1092C13.0967 16.3479 13.5283 16.4905 13.8648 16.5972C14.4199 16.7737 14.925 16.7488 15.3243 16.6891C15.7694 16.6226 16.6952 16.1285 16.8883 15.5873C17.0814 15.046 17.0814 14.5821 17.0234 14.4854C16.9655 14.3888 16.8111 14.3308 16.5793 14.2147ZM12.3515 19.9875H12.3483C10.9653 19.987 9.60872 19.6154 8.42526 18.9131L8.14384 18.7461L5.22658 19.5113L6.00522 16.667L5.82197 16.3754C5.0504 15.1482 4.64292 13.7299 4.6435 12.2735C4.64519 8.02369 8.10293 4.56622 12.3545 4.56622C14.4133 4.56693 16.3486 5.36976 17.8038 6.82667C19.2591 8.28355 20.06 10.2202 20.0593 12.2796C20.0575 16.5298 16.5998 19.9875 12.3515 19.9875ZM18.9114 5.71961C17.1606 3.96673 14.8321 3.00098 12.3514 3C7.23989 3 3.07977 7.15981 3.07773 12.2728C3.07706 13.9073 3.50406 15.5026 4.31561 16.9091L3 21.7145L7.91604 20.4249C9.27056 21.1637 10.7956 21.5531 12.3477 21.5537H12.3515H12.3515C17.4624 21.5537 21.623 17.3934 21.625 12.2803C21.6259 9.80241 20.6622 7.47245 18.9114 5.71961Z" fill="#25D366"/>
</svg>
